<?xml version="1.0" encoding="UTF-8"?>
<svg width="700pt" height="700pt" version="1.1" viewBox="0 0 700 700" xmlns="http://www.w3.org/2000/svg">
 <g>
  <path d="m155.1 328.05 65.258 61.738 129.64-128.24 129.64 128.24 65.258-61.738-194.9-192.8zm65.117 49.578-52.535-49.719 177.94-176.03v101.69zm259.56 0-125.41-124.06v-101.69l177.94 176.03z"/>
  <path d="m80.57 311.55c-1.1562-10.047-1.7656-20.281-1.8203-30.449l-8.75 0.019532c0.035156 10.621 0.68359 21.105 1.8711 31.43z"/>
  <path d="m521.43 58.59c-1.5039-1.1719-3.0273-2.3281-4.5664-3.4648-0.035156-0.015625-0.050781-0.035156-0.085937-0.050781s-0.050782-0.035157-0.085938-0.070313c-0.10547-0.070312-0.21094-0.15625-0.31641-0.22656-0.015625 0-0.015625-0.015625-0.035156-0.015625-0.015625-0.015625-0.035156-0.015625-0.050782-0.035157-0.015624-0.015624-0.035156-0.015624-0.050781-0.035156l-0.035156-0.015625-0.050781-0.050781c-0.015625-0.015625-0.015625-0.015625-0.035156-0.015625-0.015626-0.015625-0.035157-0.035156-0.070313-0.050781 0 0-0.015625-0.015625-0.035156-0.015625-0.015625-0.015625-0.035157-0.035157-0.070313-0.050781-0.015625-0.015626-0.015625-0.015626-0.035156-0.015626-0.070312-0.050781-0.12109-0.085937-0.19141-0.14062l-0.015625-0.015626c-0.015625-0.015624-0.050781-0.035156-0.070313-0.050781 0 0-0.015625 0-0.015625-0.015625-0.015625-0.015625-0.050781-0.035156-0.070312-0.050781 0 0-0.015625 0-0.015625-0.015625-0.035156-0.015625-0.050782-0.035156-0.085938-0.070312-0.10547-0.070313-0.19141-0.14063-0.29688-0.21094-6.0898-4.4453-12.355-8.6641-18.797-12.617h-0.015625c-0.035156-0.015624-0.050781-0.035156-0.085937-0.050781 0 0-0.015625 0-0.015625-0.015625-0.015625-0.015625-0.050781-0.035156-0.070313-0.050781 0 0-0.015625-0.015625-0.035156-0.015625-0.035156-0.015625-0.050781-0.035156-0.085938-0.050781 0 0-0.015624 0-0.015624-0.015625-0.035157-0.015625-0.070313-0.035156-0.10547-0.050782-0.035157-0.015624-0.070313-0.035156-0.10547-0.070312 0 0-0.015625-0.015625-0.035156-0.015625-0.015625-0.015625-0.050782-0.035156-0.070313-0.035156-0.015625-0.015625-0.035156-0.015625-0.050781-0.035157-0.015625 0-0.035156-0.015624-0.035156-0.035156-0.015625 0-0.035156-0.015625-0.050782-0.035156-0.015624 0-0.035156-0.015625-0.035156-0.035156 0 0-0.015625-0.015625-0.035156-0.015625l-4.5508 7.4727c8.6445 5.2656 17.098 11.094 25.113 17.309z"/>
  <path d="m563.83 446.91 6.8945 5.3906c6.4219-8.2266 12.406-16.816 17.902-25.742 0.015625-0.035156 0.035156-0.070312 0.070313-0.10547l-7.4531-4.5859c-5.3203 8.6289-11.168 17.062-17.414 25.043z"/>
  <path d="m600.7 155.17c-4.707-9.4336-9.9219-18.551-15.629-27.336l-7.332 4.7617c5.5117 8.5039 10.605 17.414 15.137 26.477z"/>
  <path d="m521.18 490.42 5.5312 6.7891c8.1562-6.6328 15.906-13.719 23.258-21.211l-6.2461-6.125c-7.1055 7.2266-14.684 14.141-22.543 20.547z"/>
  <path d="m469.95 523.36 3.8672 7.8398c6.457-3.1836 12.773-6.6133 18.934-10.273 0.035156-0.015625 0.050781-0.035156 0.085937-0.050781 0 0 0.015625-0.015625 0.035157-0.015625 0.015624-0.015625 0.050781-0.035157 0.070312-0.050781 0.015625 0 0.015625 0 0.015625-0.015626 0.015625-0.015624 0.050781-0.035156 0.085937-0.050781l0.015626-0.015625c0.035156-0.015625 0.050781-0.035156 0.085937-0.050781h0.015625c0.035156-0.015625 0.070312-0.035156 0.085938-0.050781l0.015624-0.015625c0.035157-0.015625 0.070313-0.035157 0.085938-0.050781 0.015625-0.015626 0.015625 0 0.015625-0.015626 0.015625-0.015624 0.050781-0.035156 0.070313-0.035156 0.015624-0.015625 0.035156-0.015625 0.035156-0.015625 0.015625-0.015625 0.035156-0.015625 0.050781-0.035156 0.015625 0 0.035156-0.015625 0.050781-0.035156 0.015625-0.015625 0.035156-0.015625 0.050782-0.035157 0.015624-0.015624 0.035156-0.015624 0.050781-0.035156 0.015625 0 0.035156-0.015625 0.050781-0.035156 0.015625-0.015625 0.035156-0.015625 0.050781-0.035156l0.015625-0.015625c0.085938-0.050781 0.15625-0.085938 0.24609-0.14062h0.015625c0.035156-0.015625 0.050781-0.035156 0.085937-0.050782 0.035157-0.015624 0.050782-0.035156 0.085938-0.050781h0.015625c2.3281-1.3984 4.6367-2.8359 6.9297-4.3242l-4.7266-7.3672c-8.4844 5.4883-17.41 10.547-26.492 15.027z"/>
  <path d="m77.246 343.58c0.73438 3.168 1.5234 6.3008 2.3633 9.4336 0.015625 0.035156 0.015625 0.070312 0.035156 0.10547 0.015625 0.035156 0.015625 0.070312 0.035157 0.10547v0.015625c0 0.035157 0.015624 0.050781 0.015624 0.085938v0.035156c0.035157 0.12109 0.070313 0.24609 0.10547 0.36719 0 0.015626 0 0.015626 0.015625 0.035157 0 0.015625 0.015625 0.035156 0.015625 0.070312 0 0.015625 0 0.035157 0.015625 0.035157 0 0.015624 0.015625 0.035156 0.015625 0.070312 0 0.015625 0 0.035156 0.015625 0.035156 0 0.015625 0.015625 0.050782 0.015625 0.070313 0 0.015625 0 0.035156 0.015625 0.035156 0 0.015625 0.015625 0.035156 0.015625 0.070313 0 0.015624 0.015625 0.035156 0.015625 0.050781s0.015625 0.035156 0.015625 0.050781 0.015625 0.050781 0.015625 0.070312c0 0.015626 0 0.035157 0.015625 0.050782 0.015625 0.035156 0.015625 0.070312 0.035157 0.10547 0 0.015626 0 0.015626 0.015624 0.035157 0 0.015625 0.015626 0.050781 0.015626 0.070312 0 0.015625 0 0.035157 0.015624 0.050781 0 0.015626 0.015626 0.050782 0.015626 0.070313l0.015624 0.035156c0 0.015625 0.015626 0.050781 0.015626 0.070313 0 0.015625 0 0.035156 0.015624 0.050781 0 0.015625 0.015626 0.050781 0.015626 0.070313 0 0.015624 0 0.035156 0.015624 0.035156 0 0.015625 0.015626 0.050781 0.015626 0.070312 0 0.015625 0 0.015625 0.015624 0.035156 0.015626 0.035157 0.015626 0.070313 0.035157 0.10547 0.015625 0.035157 0.015625 0.070313 0.035156 0.12109 0.015625 0.035156 0.015625 0.070313 0.035156 0.12109 0.015625 0.035156 0.015625 0.070312 0.035157 0.10547v0.015624c0 0.035157 0.015624 0.070313 0.035156 0.085938v0.015625c0.015625 0.035156 0.015625 0.070313 0.035156 0.10547 0.99609 3.5508 2.0664 7.0859 3.2031 10.57v0.015625c0.015625 0.035157 0.015625 0.070313 0.035156 0.085938v0.015625c0.015625 0.035156 0.015625 0.070312 0.035157 0.10547v0.015626c0.015624 0.035156 0.015624 0.070312 0.035156 0.10547 0.015625 0.035156 0.015625 0.070313 0.035156 0.10547 0.015625 0.070313 0.050781 0.15625 0.070312 0.22656v0.015624c0.015626 0.035157 0.015626 0.050782 0.035157 0.085938 0 0 0 0.015625 0.015625 0.035156 0 0.015625 0.015625 0.050782 0.015625 0.070313 0 0.015625 0 0.015625 0.015625 0.035156 0 0.015625 0.015625 0.050781 0.015625 0.070313 0 0 0 0.035156 0.015625 0.035156 0 0.015625 0.015625 0.050781 0.015625 0.070312l0.015625 0.035156c0 0.015626 0.015625 0.050782 0.015625 0.070313 0 0.015625 0.015625 0.035156 0.015625 0.050781 0.015625 0.035156 0.015625 0.070313 0.035156 0.10547 0 0 0 0.015625 0.015625 0.035156 0 0.015625 0.015625 0.050781 0.015625 0.070313 0 0.015625 0 0.035156 0.015625 0.050781 0 0.015625 0.015625 0.035156 0.015625 0.070313 0 0.015624 0.015625 0.035156 0.015625 0.050781s0.015625 0.035156 0.015625 0.050781 0.015625 0.035156 0.015625 0.050781 0.015625 0.035157 0.015625 0.050781c0 0.015626 0.015625 0.035157 0.015625 0.070313 0 0.015625 0 0.015625 0.015625 0.035156 0 0.015625 0.015625 0.050781 0.015625 0.070313 0 0.015625 0 0.035156 0.015625 0.035156 0.035156 0.12109 0.085938 0.24609 0.12109 0.35156v0.015626c0 0.015624 0.015625 0.050781 0.015625 0.070312 0 0.015625 0 0.015625 0.015625 0.035156 0 0.015625 0.015625 0.050782 0.015625 0.070313 0 0.015625 0 0.015625 0.015625 0.035156 0 0.015625 0.015625 0.050781 0.035156 0.085937v0.015626c0.085938 0.24609 0.15625 0.45312 0.22656 0.69922 0.45313 1.3281 0.91016 2.6602 1.3828 3.9883l8.2422-2.9219c-3.3945-9.5391-6.2812-19.391-8.5742-29.262z"/>
  <path d="m615.18 337.35 8.5586 1.8359c1.4531-6.7383 2.6602-13.562 3.6055-20.457 0.035156-0.26172 0.070312-0.50781 0.10547-0.75391 0-0.035156 0-0.070312 0.015626-0.085937v-0.035157c0-0.035156 0-0.050781 0.015624-0.085937v-0.035156c0-0.035157 0-0.050781 0.015626-0.085938v-0.035156c0-0.035156 0-0.050781 0.015624-0.070313v-0.035156c0-0.035156 0-0.050781 0.015626-0.070312v-0.050782c0-0.050781 0.015624-0.10547 0.015624-0.14062v-0.035157-0.050781-0.050781-0.050781-0.050782-0.050781-0.050781-0.050782c0-0.015624 0-0.050781 0.015626-0.070312v-0.050781c0-0.035157 0-0.050781 0.015624-0.085938v-0.035156c0-0.035156 0-0.050781 0.015626-0.085937v-0.035157c0.015624-0.15625 0.035156-0.31641 0.070312-0.47266v-0.015625c0-0.035156 0-0.070312 0.015625-0.10547 0.33203-2.5742 0.62891-5.1641 0.875-7.7539l-8.6992-0.875c-0.94141 10.043-2.5352 20.195-4.6719 30.082z"/>
  <path d="m595.72 395.05 7.9258 3.7109c1.3477-2.8867 2.6602-5.793 3.9023-8.7148v-0.015625c0.015625-0.035156 0.035156-0.070313 0.035156-0.10547v-0.015625c0.015625-0.035156 0.035157-0.070312 0.035157-0.085938v-0.015624c0.050781-0.10547 0.085937-0.22656 0.14062-0.33203 0-0.015625 0-0.015625 0.015626-0.035156 0.015624-0.015625 0.015624-0.050781 0.035156-0.070312l0.015625-0.035157c0.015625-0.015625 0.015625-0.050781 0.035156-0.070312 0-0.015625 0.015625-0.015625 0.015625-0.035157 0.015625-0.015624 0.015625-0.050781 0.035156-0.070312l0.015625-0.035156c0.015625-0.015625 0.015625-0.050782 0.035157-0.070313 0-0.015625 0-0.015625 0.015624-0.035156 0.015626-0.015625 0.015626-0.050781 0.035157-0.070313 0.035156-0.070312 0.070312-0.15625 0.085937-0.22656v-0.015625c0.015625-0.015625 0.015625-0.050781 0.035156-0.085937 0 0 0-0.015626 0.015626-0.015626 0.015624-0.035156 0.015624-0.050781 0.035156-0.085937v-0.015625c0.015625-0.035156 0.015625-0.050781 0.035156-0.085938v-0.015624c1.9609-4.6562 3.7812-9.3438 5.4766-14.121v-0.015625c0.015626-0.035157 0.015626-0.050781 0.035157-0.085938v-0.015625c0.015625-0.035156 0.015625-0.050781 0.035156-0.085937 0-0.015625 0-0.015625 0.015625-0.035157 0.015625-0.015624 0.015625-0.050781 0.035156-0.070312 0-0.015625 0-0.015625 0.015625-0.035156 0-0.015625 0.015625-0.050782 0.015625-0.070313 0-0.015625 0-0.015625 0.015625-0.035156 0.015625-0.035156 0.035157-0.085937 0.050781-0.14062 0-0.015625 0.015626-0.035156 0.015626-0.050781s0.015624-0.035157 0.015624-0.050781c0-0.015626 0.015626-0.035157 0.015626-0.050782s0.015624-0.035156 0.015624-0.050781 0.015626-0.050781 0.015626-0.070313c0-0.015624 0-0.015624 0.015624-0.035156 0-0.015625 0.015626-0.050781 0.015626-0.070312l0.015624-0.035156c0.015626-0.035157 0.015626-0.070313 0.035157-0.085938v-0.015625c0.035156-0.12109 0.085937-0.22656 0.12109-0.35156 0.38672-1.0859 0.75391-2.1875 1.1211-3.2734l-8.2969-2.8008c-3.1641 9.5898-6.9961 19.113-11.301 28.301z"/>
  <path d="m622.23 214.23c-2.4688-10.273-5.5117-20.336-9.082-30.137l-8.2266 2.9922c3.4648 9.5195 6.4414 19.336 8.8008 29.191z"/>
  <path d="m230.23 533.16c0.59375 0.28125 1.1719 0.55859 1.7656 0.83984 0.035156 0.015625 0.070312 0.035156 0.10547 0.050781 0.035157 0.015625 0.070313 0.035156 0.10547 0.050781h0.015625c0.035156 0.015625 0.070313 0.035156 0.10547 0.050782 0.10547 0.050781 0.21094 0.10547 0.33203 0.15625 0 0 0.015625 0.015624 0.035156 0.015624 0.015626 0.015626 0.050782 0.015626 0.070313 0.035157 0.015625 0 0.015625 0.015625 0.035156 0.015625 0.015625 0.015625 0.035157 0.015625 0.070313 0.035156 0.015625 0 0.035156 0.015625 0.050781 0.015625 0.015625 0.015625 0.035156 0.015625 0.050781 0.035156 0.015625 0 0.035156 0.015625 0.050782 0.015625 0.015624 0 0.035156 0.015625 0.050781 0.015625s0.035156 0.015625 0.050781 0.015625c0.015625 0.015625 0.050781 0.015625 0.085938 0.035156 0.035156 0.015626 0.070312 0.035157 0.10547 0.050782 0.015625 0.015625 0.050782 0.015625 0.085938 0.035156 0 0 0.015625 0 0.015625 0.015625 0.035156 0.015625 0.050781 0.015625 0.085937 0.035156h0.015625c0.035157 0.015625 0.050781 0.015625 0.085938 0.035157h0.015625c8.3828 3.832 16.977 7.2617 25.777 10.273l2.8359-8.2773c-9.5898-3.2734-19.094-7.1406-28.246-11.48z"/>
  <path d="m352.19 551.25 0.070312 8.75c10.621-0.085938 21.105-0.75391 31.414-1.9961l-1.0508-8.6797c-10.027 1.1914-20.266 1.8398-30.434 1.9258z"/>
  <path d="m289.71 553.49c2.4492 0.54297 4.918 1.0508 7.3867 1.5234 0.035156 0 0.070313 0.015625 0.10547 0.015625 0.31641 0.050781 0.62891 0.12109 0.96094 0.17578 0.035157 0 0.070313 0.015625 0.10547 0.015625 0.035157 0 0.070313 0.015625 0.10547 0.015625 0.24609 0.050781 0.48828 0.085937 0.73438 0.14062h0.015625c0.035156 0 0.070312 0.015625 0.10547 0.015625 0.035156 0 0.070312 0.015625 0.10547 0.015625h0.015624c0.035157 0 0.070313 0.015625 0.10547 0.015625 0.035157 0 0.070313 0.015625 0.10547 0.015625 0.21094 0.035156 0.42188 0.070312 0.62891 0.12109h0.015625c0.035157 0 0.070313 0.015625 0.10547 0.015625s0.050781 0.015625 0.085938 0.015625h0.015624c0.035157 0 0.070313 0.015625 0.085938 0.015625 0.21094 0.035156 0.42188 0.070312 0.64844 0.10547 0.035156 0 0.070312 0.015624 0.10547 0.015624h0.015625c4.2695 0.75391 8.5742 1.3984 12.914 1.9609 0.035156 0 0.050781 0 0.085937 0.015625h0.015625c0.035156 0 0.050782 0 0.085938 0.015625h0.015625c0.035156 0 0.050781 0 0.085937 0.015625h0.015625c0.17578 0.015625 0.35156 0.035156 0.52344 0.070313h0.015625c0.035156 0 0.050781 0 0.070312 0.015624h0.050782 0.070312 0.050781 0.070313 0.050781 0.070313 0.050781 0.050781 0.070312 0.050782c0.015625 0 0.050781 0 0.070312 0.015626h0.035156c0.035157 0 0.070313 0.015624 0.12109 0.015624h0.035156c0.035157 0 0.050782 0 0.085938 0.015626h0.035156c0.035156 0 0.050782 0 0.085938 0.015624h0.035156c0.035156 0 0.050781 0 0.085938 0.015626h0.035156c0.035156 0 0.070312 0 0.10547 0.015624h0.015626c0.035156 0 0.070312 0 0.10547 0.015626h0.015625c1.3984 0.15625 2.7812 0.31641 4.1836 0.47266l0.91016-8.6992c-10.098-1.0508-20.23-2.6758-30.117-4.8477z"/>
  <path d="m176.8 500.03c0.035157 0.015625 0.070313 0.050781 0.085938 0.070312 0.035156 0.015625 0.050781 0.050782 0.085937 0.070313l0.015625 0.015625c0.035157 0.015625 0.050781 0.050781 0.085938 0.070312 0.035156 0.015625 0.050781 0.050782 0.085937 0.070313l0.015625 0.015625c0.070313 0.050781 0.12109 0.10547 0.19141 0.14062 0.035156 0.015625 0.050781 0.050781 0.085937 0.070312 0 0 0.015625 0 0.015625 0.015625 0.015625 0.015625 0.050781 0.035156 0.070312 0.050782 0.015626 0.015624 0.015626 0.015624 0.035157 0.035156l0.050781 0.050781c0.015625 0.015625 0.015625 0.015625 0.035156 0.015625 0.015625 0.015625 0.035156 0.035156 0.070313 0.050781l0.015625 0.015625c0.015625 0.015625 0.050781 0.035156 0.070312 0.050782 0 0 0.015625 0 0.015625 0.015624 0.035157 0.015626 0.050781 0.050782 0.085938 0.070313l0.035156 0.035156c0.015625 0.015625 0.035156 0.035157 0.050781 0.035157 0.015625 0.015624 0.015625 0.015624 0.035156 0.035156 0.015626 0.015625 0.035157 0.035156 0.050782 0.035156 0.015625 0.015625 0.035156 0.015625 0.035156 0.035156 0.015625 0.015625 0.035156 0.015625 0.050781 0.035156 0.015625 0.015626 0.035157 0.015626 0.035157 0.035157 0.015624 0.015625 0.035156 0.015625 0.050781 0.035156 0.015625 0.015625 0.035156 0.015625 0.050781 0.035156 0.015625 0.015625 0.035156 0.035157 0.070312 0.050781l0.015626 0.015626c0.035156 0.015624 0.050781 0.050781 0.085937 0.070312 0.015625 0.015625 0.035156 0.015625 0.035156 0.035156 0.015625 0.015625 0.035157 0.035156 0.050781 0.035156 0.015626 0.015626 0.015626 0.015626 0.050782 0.035157 0.015625 0.015625 0.035156 0.015625 0.035156 0.035156 0.015625 0.015625 0.035156 0.035156 0.050781 0.035156 0.015625 0.015625 0.035157 0.015625 0.050781 0.035157 0.015626 0.015624 0.035157 0.015624 0.035157 0.035156 0.015625 0.015625 0.035156 0.015625 0.050781 0.035156 0.015625 0.015625 0.035156 0.015625 0.050781 0.035156 0.015625 0 0.015625 0.015625 0.035157 0.035156 0.070312 0.050782 0.14062 0.10547 0.21094 0.15625 0.015625 0.015626 0.050781 0.035157 0.070313 0.050782 0 0 0.015624 0.015625 0.015624 0.015625 0.015626 0.015625 0.050782 0.035156 0.070313 0.050781l0.082031 0.082031c0.10547 0.070313 0.21094 0.15625 0.29688 0.22656l0.015625 0.015625c0.035156 0.015625 0.050782 0.035156 0.070313 0.050781l0.015625 0.015625c0.035156 0.015625 0.050781 0.035156 0.070312 0.050781h0.015625c0.035157 0.015625 0.050781 0.035156 0.070313 0.050782 0.14062 0.10547 0.26172 0.21094 0.40234 0.31641 0 0 0.015624 0.015625 0.015624 0.015625 0.035157 0.015625 0.035157 0.035156 0.070313 0.050781l0.015625 0.015625c0.035156 0.015625 0.050781 0.035156 0.070312 0.050781 0.10547 0.085938 0.21094 0.17578 0.33203 0.24609 0.035156 0.015625 0.050781 0.035156 0.085937 0.050781 0.035157 0.015625 0.050781 0.035157 0.070313 0.050781l0.015625 0.015626c0.015625 0.015624 0.050781 0.035156 0.070312 0.050781h0.015625c0.14062 0.10547 0.26172 0.19141 0.40234 0.31641h0.015625c0.035156 0.015625 0.050781 0.035156 0.070313 0.050781 0.035156 0.015625 0.050781 0.035156 0.070312 0.050782h0.015625c0.10547 0.085937 0.21094 0.15625 0.33203 0.24609 0.035156 0.015625 0.050782 0.035157 0.085938 0.070313 0.035156 0.015625 0.050781 0.035156 0.085937 0.050781 0.035157 0.015625 0.050781 0.035156 0.070313 0.050781 0.14062 0.10547 0.26172 0.21094 0.40234 0.31641 0.19141 0.14063 0.38672 0.29688 0.59375 0.4375 0.035156 0.015626 0.050781 0.035157 0.085937 0.050782h0.015625c0.14062 0.10547 0.26172 0.19141 0.40234 0.29688h0.015625c0.015625 0.015625 0.050781 0.035156 0.070312 0.050781l0.015625 0.015625c0.035156 0.015625 0.035156 0.035156 0.070313 0.050781 0 0 0.015625 0 0.015625 0.015625 0.035156 0.015625 0.035156 0.035157 0.070312 0.050781l0.015625 0.015626c0.10547 0.070312 0.21094 0.15625 0.31641 0.22656 0 0 0.015624 0.015625 0.015624 0.015625 0.035157 0.015625 0.050782 0.035156 0.070313 0.050781h0.015625c0.035156 0.015625 0.050781 0.035156 0.085938 0.050782 0.035156 0.015624 0.050781 0.035156 0.085937 0.050781 0.10547 0.070312 0.21094 0.15625 0.31641 0.22656 0.015625 0 0.015625 0.015625 0.035157 0.015625 0.015624 0.015625 0.035156 0.015625 0.050781 0.035156 0.015625 0.015626 0.035156 0.015626 0.050781 0.035157 0.015625 0.015625 0.035156 0.015625 0.050781 0.035156 0.015625 0 0.015625 0.015625 0.035157 0.035156 0.015624 0.015625 0.035156 0.015625 0.050781 0.035157l0.015625 0.015624c0.050781 0.035157 0.085937 0.070313 0.14062 0.10547 0.015625 0.015625 0.035156 0.035157 0.050781 0.035157 0.015625 0.015624 0.015625 0.015624 0.035156 0.035156 0.015625 0.015625 0.035156 0.015625 0.050782 0.035156 0.015624 0 0.015624 0.015625 0.035156 0.035156 0.015625 0.015625 0.035156 0.035156 0.050781 0.035156s0.015625 0.015626 0.035156 0.015626c0.015625 0.015624 0.035157 0.035156 0.050781 0.035156 0.015626 0.015625 0.035157 0.015625 0.035157 0.035156 0.015625 0.015625 0.035156 0.015625 0.050781 0.035156 0.015625 0 0.015625 0.015625 0.035156 0.015625 0.070313 0.050781 0.14062 0.10547 0.21094 0.15625l0.015625 0.015625c0.015625 0.015625 0.035156 0.035156 0.050781 0.050782 0.015625 0 0.015625 0.015624 0.035156 0.015624 0.015625 0.015626 0.035156 0.035157 0.050782 0.035157 0.015624 0.015625 0.035156 0.015625 0.050781 0.035156 0.015625 0.015625 0.035156 0.015625 0.050781 0.035156 0.015625 0.015625 0.035156 0.015625 0.050781 0.035157l0.035157 0.015624c0.015624 0.015626 0.035156 0.035157 0.070312 0.050782 0.015625 0.015625 0.015625 0.015625 0.035156 0.015625 0.035156 0.015625 0.050782 0.050781 0.085938 0.070312 0.19922 0.23047 0.21484 0.23047 0.21484 0.23047 0.015624 0.015625 0.050781 0.035156 0.070312 0.050781 0 0 0.035156 0.015625 0.035156 0.035157 0.015625 0.015624 0.035156 0.035156 0.050782 0.035156 0.015624 0.015625 0.015624 0.015625 0.035156 0.035156 0.015625 0.015625 0.035156 0.015625 0.050781 0.035156 0.015625 0.015625 0.035156 0.015625 0.050781 0.035156 0.015625 0.015626 0.035156 0.015626 0.050782 0.035157 0.015624 0.015625 0.015624 0.015625 0.035156 0.035156 0.085937 0.070313 0.19141 0.14062 0.28125 0.21094l0.015625 0.015626c0.015625 0.015624 0.050781 0.035156 0.070312 0.050781l0.015625 0.015625c0.015625 0.015625 0.050782 0.035156 0.070313 0.050781l0.015625 0.015625c0.035156 0.015625 0.050781 0.035156 0.085937 0.070312 0.10547 0.070313 0.19141 0.14063 0.29688 0.21094 0.035156 0.015625 0.070313 0.050781 0.085938 0.070312 0.035156 0.015626 0.050781 0.035157 0.085937 0.070313h0.015625c0.14062 0.085937 0.26172 0.19141 0.40234 0.28125 0.035156 0.015625 0.070312 0.050781 0.085938 0.070313 0.035156 0.015624 0.070312 0.050781 0.085937 0.070312 4.4961 3.168 9.082 6.1953 13.754 9.1016l4.6211-7.4375c-8.6094-5.3359-17.012-11.234-24.973-17.516z"/>
  <path d="m232.02 35.684-3.8164-7.875c-0.26172 0.12109-0.52344 0.24219-0.78516 0.38281-0.019531 0.019532-0.054687 0.035156-0.089843 0.035156h-0.015625c-0.035156 0.035157-0.070313 0.054688-0.10547 0.070313-0.089844 0.035156-0.15625 0.070313-0.22656 0.10547-0.035156 0.019531-0.070312 0.035156-0.10547 0.050781l-0.035156 0.015625c-0.019532 0.019531-0.035157 0.019531-0.054688 0.039062-0.015625 0-0.035156 0.015626-0.050781 0.015626s-0.035157 0.015624-0.050781 0.035156c-0.015626 0-0.035157 0.015625-0.050782 0.035156-0.015625 0-0.015625 0.015625-0.035156 0.015625-0.039062 0.003906-0.054688 0.003906-0.074219 0.019531 0 0-0.015625 0-0.015625 0.015625-0.10547 0.050781-0.24609 0.12109-0.35156 0.17578h-0.015625c-0.054688 0.019532-0.070313 0.019532-0.089844 0.039063h-0.015625c-0.035156 0.03125-0.054688 0.03125-0.089844 0.050781h-0.015625c-4.0586 2.0117-8.0508 4.1133-11.988 6.3008-0.12109 0.085937-0.22656 0.14062-0.35156 0.21094h-0.015626c-0.019531 0.015625-0.054687 0.03125-0.070312 0.050781 0 0-0.015625 0-0.015625 0.015625-0.035156 0-0.054687 0.019531-0.089844 0.035157-0.015625 0-0.015625 0.015624-0.035156 0.015624-0.015625 0.019532-0.035156 0.019532-0.050781 0.039063 0 0-0.015625 0-0.015625 0.015625-0.039063 0.019531-0.054688 0.019531-0.074219 0.035156-0.015625 0-0.015625 0.015625-0.035156 0.015625-0.035156 0.019531-0.050782 0.019531-0.070313 0.039063h-0.015625c-0.050781 0.035156-0.10547 0.070312-0.14062 0.085937-0.015625 0-0.015625 0.015625-0.035156 0.015625-0.015625 0-0.035156 0.015625-0.050781 0.035156-0.019532 0.003907-0.035156 0.019532-0.054688 0.039063l-0.035156 0.015625c-0.015625 0.015625-0.050781 0.015625-0.070312 0.035156-0.015626 0-0.035157 0.015625-0.050782 0.035156 0 0-0.019531 0-0.035156 0.015626-0.015625 0-0.035156 0.015624-0.050781 0.015624-0.019531 0.019532-0.035157 0.039063-0.054688 0.039063-0.015625 0-0.035156 0.015625-0.050781 0.035156-0.019531 0.015625-0.054688 0.035157-0.089844 0.050781h-0.015625c-0.019531 0.019532-0.054687 0.035157-0.089843 0.054688 0 0-0.015626 0-0.015626 0.015625-0.035156 0.019531-0.070312 0.035156-0.085937 0.054687 0 0-0.015625 0-0.015625 0.015626-0.039062 0-0.054688 0.019531-0.089844 0.035156 0 0-0.015625 0-0.015625 0.015625-0.039062 0.019531-0.074219 0.035156-0.10938 0.054687-3.8125 2.168-7.5586 4.4102-11.27 6.7539l4.6719 7.4023c8.5781-5.4258 17.555-10.41 26.672-14.82z"/>
  <path d="m136.1 460.69c0.31641 0.38672 0.62891 0.73438 0.94531 1.1211 0 0 0 0.015625 0.015625 0.015625 0.050781 0.050781 0.085937 0.085937 0.12109 0.14062 0 0 0.015624 0.015625 0.015624 0.015625 0.070313 0.070312 0.12109 0.14062 0.17578 0.21094v0.015625c0.035156 0.050781 0.085937 0.085938 0.12109 0.14062 0.015624 0.015625 0.015624 0.015625 0.035156 0.035156 0.035156 0.050782 0.070312 0.085938 0.12109 0.14063 0.015624 0.015624 0.035156 0.035156 0.035156 0.050781 0.035156 0.050781 0.085937 0.10547 0.12109 0.14062 0.015624 0.015625 0.035156 0.050781 0.050781 0.070312 0.035156 0.035156 0.070312 0.085938 0.10547 0.10547 0.015624 0.015625 0.035156 0.050781 0.050781 0.070313 0.035156 0.035156 0.070312 0.070312 0.085937 0.10547 0.035156 0.035156 0.050782 0.070313 0.085938 0.10547 0.015625 0.035156 0.035156 0.050781 0.070312 0.070313 0.035156 0.035156 0.050782 0.070312 0.085938 0.10547s0.050781 0.070313 0.085937 0.10547c0.015625 0.035156 0.050781 0.050781 0.070313 0.085937 0.035156 0.035157 0.050781 0.050782 0.085937 0.085938 0.035157 0.035156 0.050781 0.070312 0.085938 0.10547 0.015625 0.035156 0.035156 0.050781 0.070312 0.070312 0.035157 0.035157 0.050781 0.070313 0.085938 0.10547 0.035156 0.035156 0.050781 0.050781 0.085937 0.085938 0.035156 0.035156 0.050782 0.050781 0.085938 0.085937 0.015625 0.035156 0.050781 0.050781 0.070312 0.085937 0.035156 0.035157 0.070313 0.070313 0.10547 0.10547 0.015625 0.015625 0.035156 0.035157 0.050781 0.050781 0.035156 0.035157 0.070313 0.085938 0.10547 0.12109 0.015625 0.015625 0.035156 0.050782 0.050781 0.070313 0.035156 0.035156 0.070313 0.085937 0.10547 0.12109 0.015625 0.015626 0.035156 0.035157 0.050781 0.070313 0.035156 0.035156 0.070313 0.085937 0.10547 0.12109l0.050781 0.050781c0.035156 0.035156 0.070313 0.085938 0.10547 0.12109l0.050781 0.050781c0.082032 0.085937 0.11719 0.12109 0.15234 0.17188l0.050781 0.050781c0.035157 0.050781 0.070313 0.085938 0.12109 0.14062 0.015625 0.015625 0.015625 0.035156 0.035156 0.035156 0.035157 0.050782 0.085938 0.085938 0.12109 0.14063 0.015625 0.015624 0.035156 0.035156 0.035156 0.035156 0.050781 0.050781 0.085938 0.10547 0.14062 0.15625l0.035156 0.035156c0.050782 0.050781 0.085938 0.10547 0.12109 0.14062 0 0 0.015625 0.035156 0.035156 0.035156 0.050782 0.050781 0.085938 0.10547 0.14063 0.15625 0.015624 0.015625 0.015624 0.015625 0.015624 0.035157 0.050782 0.050781 0.085938 0.10547 0.14063 0.15625l0.035156 0.035156c0.050781 0.050781 0.085937 0.10547 0.14062 0.15625 0 0 0.015625 0.015625 0.015625 0.035156 0.050781 0.050781 0.10547 0.10547 0.14062 0.17578l0.015625 0.015625c0.050781 0.050782 0.10547 0.10547 0.14062 0.15625l0.015625 0.015625c0.050781 0.050781 0.085937 0.10547 0.14062 0.15625l0.015625 0.015625c0.050781 0.050782 0.10547 0.12109 0.15625 0.17578 0.050781 0.050781 0.10547 0.12109 0.15625 0.17578 0 0 0 0.015625 0.015625 0.015625 0.050781 0.050781 0.10547 0.12109 0.15625 0.17578 0.050781 0.050781 0.10547 0.12109 0.15625 0.17578 0.050781 0.050782 0.10547 0.12109 0.15625 0.17578 3.4648 3.832 7.0508 7.5586 10.711 11.184l6.1406-6.2305c-7.2109-7.1211-14.105-14.734-20.477-22.629l-6.8086 5.4961c1.3867 1.6562 2.7188 3.2656 4.082 4.875z"/>
  <path d="m137.53 111.37-6.8594-5.4453c-2.2734 2.8711-4.4961 5.7734-6.668 8.75v0.015625c-0.035156 0.003906-0.050781 0.019532-0.070312 0.054688 0 0 0 0.015625-0.015625 0.015625 0 0.039062-0.019531 0.039062-0.035157 0.074219-0.050781 0.070312-0.12109 0.15625-0.17578 0.22656 0 0 0 0.015625-0.015625 0.015625-0.019531 0.035156-0.035156 0.054687-0.035156 0.070313l-0.035156 0.035156-0.035156 0.054687c0 0.015625-0.015626 0.015625-0.015626 0.035157-0.039062 0.035156-0.039062 0.050781-0.054687 0.070312 0 0-0.015625 0.015625-0.015625 0.035156-0.019531 0.015625-0.039062 0.035156-0.054688 0.050782 0 0.015624-0.015624 0.015624-0.015624 0.035156-0.019532 0.019531-0.039063 0.035156-0.054688 0.050781-0.015625 0.019531-0.015625 0.035156-0.035156 0.054687-0.015625 0.035157-0.035156 0.050782-0.050782 0.070313-0.019531 0.015625-0.019531 0.035156-0.035156 0.050781-0.019531 0.019532-0.019531 0.035156-0.035156 0.054688-0.019531 0.015625-0.019531 0.035156-0.035156 0.050781 0 0-0.015625 0.015625-0.015625 0.035156-0.019531 0.019531-0.039063 0.035157-0.054688 0.054688-0.019531 0.015625-0.019531 0.015625-0.035156 0.035156 0 0.015625-0.019531 0.03125-0.035156 0.066406 0 0-0.015625 0.035157-0.035157 0.035157 0 0.019531-0.019531 0.035156-0.035156 0.054687-0.019531 0.015625-0.019531 0.015625-0.019531 0.035156-0.050781 0.070313-0.10156 0.12109-0.13672 0.19141l-0.019531 0.019531c-0.015625 0.015625-0.035156 0.050781-0.050781 0.085937v0.015625c-0.035156 0.019531-0.054688 0.035157-0.070313 0.070313v0.015625c-0.10547 0.125-0.21094 0.26562-0.29688 0.38672-0.019531 0.035156-0.054687 0.070312-0.070312 0.10547-0.019532 0.035156-0.054688 0.070313-0.070313 0.10547-3.082 4.2891-6.0391 8.6797-8.875 13.16l-0.015625 0.015625c-0.019531 0.019532-0.035156 0.054688-0.050781 0.089844l-0.015625 0.015625c-0.019531 0.019531-0.039062 0.054687-0.054688 0.089844-0.070312 0.10547-0.14062 0.21094-0.19531 0.29688-0.015625 0.019531-0.015625 0.035156-0.035156 0.050781 0 0.019531-0.015625 0.035156-0.035156 0.054687 0 0.015626-0.015626 0.035157-0.015626 0.035157-0.019531 0.015625-0.019531 0.035156-0.035156 0.050781 0 0.015625-0.015625 0.035156-0.035156 0.050781 0 0.015625-0.015625 0.035157-0.035156 0.035157 0 0.039062-0.015625 0.054687-0.035156 0.074218 0 0 0 0.015625-0.015626 0.015625-0.070312 0.14062-0.17578 0.29688-0.26562 0.4375 0 0.015625-0.015626 0.035157-0.035157 0.050781l7.4219 4.6367c5.3711-8.5898 11.305-16.953 17.621-24.898z"/>
  <path d="m180.51 68.199-5.4766-6.8242c-1.1719 0.94141-2.3633 1.9219-3.5352 2.8867l-0.015625 0.015625c-0.054687 0.035156-0.089844 0.070312-0.14062 0.12109-0.019531 0-0.035156 0.019531-0.035156 0.035156-0.054688 0.035156-0.089844 0.054687-0.14062 0.10547-0.019531 0.019532-0.054688 0.054688-0.089844 0.070313-0.03125 0.035156-0.050781 0.054687-0.085937 0.070313-0.035157 0.035156-0.070313 0.054687-0.10547 0.085937-0.015625 0.019531-0.050781 0.054687-0.085938 0.070313-0.035156 0.035156-0.070312 0.070312-0.125 0.10547-0.015625 0.019532-0.035156 0.035156-0.050781 0.054688-0.035156 0.035156-0.085938 0.070312-0.12109 0.10547-0.019531 0.015626-0.035156 0.015626-0.054687 0.035157-0.050781 0.050781-0.10547 0.085937-0.14062 0.12109-0.015625 0.015626-0.035156 0.015626-0.050782 0.035157-0.054687 0.050781-0.10547 0.085937-0.15625 0.14062 0 0-0.015624 0.015625-0.035156 0.015625-0.035156 0.054687-0.10547 0.089843-0.16016 0.14062l-0.015625 0.015625c-0.050781 0.050781-0.12109 0.10547-0.17578 0.15625-0.070313 0.039062-0.12109 0.089843-0.19141 0.14453-6.2148 5.25-12.18 10.742-17.902 16.5l6.1953 6.1758c7.1562-7.1914 14.785-14.031 22.695-20.383z"/>
  <path d="m566.49 102.43c-2.9219-3.5508-5.9141-7.0352-9.0117-10.43-0.10547-0.12109-0.22656-0.24609-0.33203-0.36719-0.10547-0.12109-0.22656-0.24609-0.33203-0.36719-0.050781-0.050781-0.10547-0.12109-0.15625-0.17578l-0.015625-0.015626c-0.050781-0.050781-0.10547-0.10547-0.15625-0.17578l-0.015625-0.015625c-0.050781-0.050781-0.10547-0.12109-0.15625-0.17578l-0.1875-0.1875c-0.050781-0.050781-0.10547-0.10547-0.15625-0.15625l-0.015625-0.015625c-0.050781-0.050781-0.10547-0.10547-0.15625-0.17578l-0.015625-0.015625c-0.050781-0.050782-0.085937-0.10547-0.14062-0.15625l-0.015625-0.015625c-0.050781-0.050781-0.085937-0.10547-0.14062-0.15625l-0.015625-0.015625c-0.050781-0.050782-0.10547-0.10547-0.15625-0.15625l-0.015625-0.015625c-0.050781-0.050781-0.085937-0.10547-0.14062-0.15625 0 0-0.015625-0.015625-0.015625-0.035157-0.050781-0.050781-0.10547-0.10547-0.15625-0.15625l-0.015625-0.015624c-0.050781-0.050782-0.10547-0.10547-0.15625-0.15625 0 0-0.015625-0.015626-0.015625-0.035157-0.050781-0.050781-0.085937-0.10547-0.14062-0.15625l-0.015625-0.015625c-0.050781-0.050781-0.10547-0.10547-0.14062-0.15625l-0.015625-0.015625c-0.050781-0.050781-0.10547-0.10547-0.14062-0.15625l-0.035156-0.035156c-0.050781-0.050781-0.085938-0.085937-0.14062-0.14062 0 0-0.015625-0.035156-0.035156-0.035156-0.050781-0.050782-0.085938-0.10547-0.14062-0.15625l-0.015625-0.015625c-0.050781-0.050781-0.085938-0.10547-0.14062-0.15625 0 0-0.015625-0.015625-0.035156-0.035157-0.050782-0.050781-0.085938-0.085937-0.14063-0.14062 0 0-0.015624-0.015626-0.035156-0.035157-0.050781-0.050781-0.085937-0.10547-0.14062-0.14062l-0.035156-0.035156c-0.050781-0.050781-0.085937-0.10547-0.14062-0.14062l-0.035156-0.035156c-0.050782-0.050781-0.085938-0.10547-0.14062-0.14062 0 0-0.015625-0.015625-0.035157-0.035156-0.050781-0.050782-0.10547-0.10547-0.15625-0.15625l-0.015624-0.015626c-0.050782-0.050781-0.10547-0.10547-0.14063-0.15625 0 0-0.015624-0.015624-0.015624-0.035156-0.050782-0.050781-0.085938-0.10547-0.14063-0.15625 0 0-0.015624-0.015625-0.015624-0.015625-0.050782-0.050781-0.10547-0.10547-0.15625-0.15625l-0.015626-0.015625c-0.050781-0.050781-0.085937-0.10547-0.14062-0.15625 0 0-0.015626-0.015625-0.015626-0.035156-0.050781-0.050781-0.085937-0.10547-0.14062-0.14062l-0.015626-0.015625c-0.050781-0.050781-0.10547-0.10547-0.15625-0.15625 0 0-0.015624-0.015625-0.015624-0.015625-0.050782-0.050781-0.10547-0.10547-0.15625-0.15625l-0.015626-0.015625c-0.050781-0.050781-0.10547-0.10547-0.14062-0.15625l-0.015626-0.015625c-0.050781-0.050781-0.10547-0.10547-0.15625-0.17578l-0.015624-0.015625c-0.050782-0.050781-0.10547-0.10547-0.15625-0.15625l-0.054688-0.058594-0.17188-0.17188c-0.050781-0.050781-0.10547-0.10547-0.15625-0.17578l-0.17188-0.17188c-0.050781-0.050782-0.10547-0.10547-0.15625-0.17578-0.050781-0.050781-0.10547-0.12109-0.17578-0.17578-0.050781-0.050781-0.10547-0.12109-0.17578-0.17578-1.6641-1.6992-3.3438-3.3789-5.0586-5.0391l-6.1094 6.2656c7.2617 7.0703 14.211 14.629 20.648 22.453z"/>
  <path d="m105.21 163-7.8945-3.7812c-4.5156 9.4336-8.5234 19.145-11.969 29.121l8.2617 2.8711c3.3242-9.5742 7.2266-19.078 11.602-28.211z"/>
  <path d="m85.297 220.54-8.5391-1.9062c-2.2734 10.168-3.9883 20.512-5.1289 31.062l8.6992 0.94531c1.082-10.117 2.7461-20.23 4.9688-30.102z"/>
  <path d="m103.67 413.23c0.015625 0.035157 0.035156 0.070313 0.050781 0.10547v0.015625c0.070313 0.14062 0.15625 0.28125 0.22656 0.42188 0.015625 0.035157 0.035156 0.070313 0.050781 0.10547s0.035156 0.070312 0.050781 0.10547v0.015625c0.015625 0.035156 0.035157 0.070312 0.050781 0.10547 0.050782 0.10547 0.12109 0.21094 0.17578 0.31641v0.015625c0.015625 0.035156 0.035156 0.050781 0.050781 0.085937 0 0 0 0.015625 0.015625 0.015625 0.015625 0.035156 0.035156 0.050782 0.050781 0.085938l0.015625 0.015625c0.015625 0.035156 0.035156 0.050781 0.050782 0.085937v0.015625c0.050781 0.10547 0.12109 0.21094 0.17578 0.31641 0 0 0.015625 0.015624 0.015625 0.035156 0.015625 0.015625 0.035156 0.050781 0.035156 0.070312l0.015625 0.015625c0.015625 0.015625 0.035156 0.050781 0.035156 0.070313 0 0.015625 0 0.015625 0.015625 0.035156 0.015625 0.015625 0.035156 0.050781 0.035156 0.070312 0 0 0.015626 0.015626 0.015626 0.035157 0.015624 0.015625 0.035156 0.050781 0.035156 0.070312 0 0.015625 0 0.015625 0.015625 0.035157 0.035156 0.070312 0.070312 0.14062 0.10547 0.21094 0 0 0 0.015625 0.015624 0.015625 0.015626 0.035156 0.035157 0.050781 0.050782 0.085938 0 0 0.015625 0.015624 0.015625 0.035156 0.015625 0.015625 0.015625 0.050781 0.035156 0.070312 0 0.015625 0.015625 0.035156 0.015625 0.035156 0.015625 0.015626 0.015625 0.050782 0.035156 0.070313 0 0 0.015625 0.015625 0.015625 0.035156 0.015625 0.015625 0.035157 0.050781 0.035157 0.070313 0 0.015625 0 0.015625 0.015624 0.035156 0.035157 0.070312 0.070313 0.14062 0.10547 0.19141 0 0.015625 0 0.015625 0.015625 0.035156 0.015625 0.015626 0.035156 0.050782 0.035156 0.070313l0.015626 0.015625c0.015624 0.015625 0.015624 0.050781 0.035156 0.070312 0 0.015626 0.015625 0.015626 0.015625 0.035157 0.015625 0.015625 0.015625 0.035156 0.035156 0.050781l0.015625 0.035156c0.015625 0.015625 0.015625 0.035156 0.035156 0.050782 0 0.015624 0.015625 0.035156 0.015625 0.050781 0.015625 0.035156 0.035157 0.050781 0.050781 0.085937 0 0.015625 0.015626 0.015625 0.015626 0.035156 0.015624 0.035157 0.035156 0.050782 0.050781 0.085938 0 0.015625 0.015625 0.015625 0.015625 0.035156 0.015625 0.015625 0.015625 0.050782 0.035156 0.070313l0.015625 0.035156c0.015625 0.015625 0.015625 0.050781 0.035156 0.070313 0 0.015624 0.015625 0.015624 0.015625 0.035156 0.015625 0.015625 0.015625 0.035156 0.035156 0.070312l0.015626 0.035156c0.015624 0.015626 0.015624 0.050782 0.035156 0.070313 0 0.015625 0.015625 0.015625 0.015625 0.035156 0.035156 0.070313 0.070312 0.14062 0.10547 0.19141 0 0.015624 0.015624 0.015624 0.015624 0.035156 0.015626 0.015625 0.015626 0.050781 0.035157 0.070312 0 0 0.015625 0.015625 0.015625 0.035156 0.015625 0.015626 0.015625 0.050782 0.035156 0.070313 0 0.015625 0.015625 0.015625 0.015625 0.035156 0.015625 0.015625 0.035156 0.050781 0.035156 0.070313 0 0 0.015625 0.015625 0.015625 0.035156 0.015625 0.015625 0.035156 0.050781 0.035156 0.070312 0 0 0.015626 0.015626 0.015626 0.035157 0.035156 0.070312 0.070312 0.14062 0.12109 0.21094 0 0 0 0.015625 0.015625 0.015625 0.015625 0.035157 0.035156 0.050781 0.050782 0.085938 0 0 0.015624 0.015625 0.015624 0.035156 0.015626 0.015625 0.015626 0.050781 0.035157 0.070313 0 0.015624 0.015625 0.035156 0.015625 0.035156 0.015625 0.015625 0.015625 0.050781 0.035156 0.070312 0 0 0.015625 0.015625 0.015625 0.035156 0.015625 0.015626 0.035156 0.050782 0.050781 0.085938l0.015625 0.015625c0.035157 0.070313 0.070313 0.14062 0.12109 0.21094v0.015626c0.015625 0.035156 0.035156 0.070312 0.050781 0.085937v0.015625c0.015625 0.035156 0.035156 0.050781 0.050782 0.085938 0 0 0 0.015624 0.015624 0.015624 0.015626 0.035157 0.035157 0.050782 0.050782 0.085938 0 0 0 0.015625 0.015625 0.015625 0.015625 0.035156 0.035156 0.050781 0.050781 0.085937v0.015626c0.050781 0.10547 0.12109 0.21094 0.17578 0.31641v0.015625c0.015625 0.035156 0.035157 0.050781 0.050781 0.085937l0.015626 0.015625c0.015624 0.035157 0.035156 0.050781 0.050781 0.085938 0 0 0 0.015625 0.015625 0.015625 0.015625 0.035156 0.035156 0.050781 0.050781 0.085937l0.015625 0.015625c0.035156 0.070313 0.085938 0.14062 0.12109 0.21094 0 0 0 0.015625 0.015625 0.015625 0.015625 0.035156 0.035156 0.050781 0.050781 0.085937l0.015625 0.015625c0.015625 0.015625 0.035156 0.050781 0.050781 0.070313 0 0 0.015625 0.015625 0.015625 0.035156 0.015625 0.035156 0.035157 0.050781 0.050781 0.070312 0 0 0.015626 0.015626 0.015626 0.035157 0.015624 0.015625 0.035156 0.050781 0.050781 0.070312 0 0 0 0.015625 0.015625 0.015625 0.050781 0.10547 0.12109 0.21094 0.17578 0.31641l0.015625 0.015626c0.015625 0.035156 0.035156 0.050781 0.050781 0.085937 0 0 0.015625 0.015625 0.015625 0.035156 0.015625 0.015625 0.035156 0.050781 0.050782 0.070313 0 0 0 0.015625 0.015624 0.015625 0.015626 0.035156 0.035157 0.050781 0.050782 0.085937 0 0 0 0.015625 0.015625 0.015625 0.085937 0.14062 0.15625 0.28125 0.24609 0.40234 0 0 0 0.015625 0.015626 0.015625 0.12891 0.046875 0.14844 0.0625 0.16406 0.097656v0.015625c0.015625 0.035157 0.035156 0.050781 0.050781 0.085938 0 0 0 0.015625 0.015625 0.015625 0.015625 0.035156 0.035156 0.070312 0.050782 0.10547 0.070312 0.10547 0.12109 0.21094 0.19141 0.31641 0.015625 0.035156 0.035156 0.070312 0.050781 0.085937 0.015625 0.035156 0.035156 0.070313 0.050781 0.085938v0.015625c0.085938 0.14062 0.15625 0.28125 0.24609 0.42188v0.015625c0.015625 0.035156 0.035156 0.070312 0.050781 0.085937v0.015625c0.015625 0.035157 0.035157 0.050781 0.050781 0.085938 0 0 0 0.015625 0.015626 0.015625 0.015624 0.035156 0.035156 0.070312 0.050781 0.085937 0.035156 0.070313 0.085937 0.14062 0.12109 0.21094 0.015626 0.035156 0.035157 0.070312 0.050782 0.10547 0 0 0 0.015624 0.015625 0.015624 0.015625 0.035157 0.035156 0.050782 0.050781 0.085938v0.015625c0.015625 0.035156 0.035156 0.050781 0.050781 0.085937v0.015626c0.015625 0.035156 0.035157 0.070312 0.050781 0.10547 0.070313 0.10547 0.12109 0.21094 0.19141 0.31641l0.015625 0.015626c0.015625 0.035156 0.035156 0.050781 0.050781 0.085937l0.015625 0.015625c0.015625 0.015625 0.035156 0.050781 0.050781 0.070312l0.015625 0.015626c0.015625 0.035156 0.035156 0.050781 0.050782 0.085937 0.070312 0.10547 0.12109 0.21094 0.19141 0.31641v0.015625c0.015625 0.035156 0.035156 0.050782 0.050781 0.085938l0.015625 0.015625c0.015625 0.035156 0.035156 0.050781 0.050781 0.085937v0.015625c0.085938 0.14062 0.17578 0.28125 0.24609 0.42188 0.015625 0.035156 0.035156 0.070313 0.050781 0.10547v0.015625c0.015625 0.035156 0.035156 0.050781 0.050782 0.085938 0 0 0 0.015624 0.015624 0.015624 0.015626 0.035157 0.035157 0.050782 0.050782 0.085938v0.015625c0.070312 0.10547 0.12109 0.21094 0.19141 0.29688l0.015625 0.015625c0.015625 0.015625 0.035156 0.050781 0.050781 0.070313l0.015625 0.015624c0.015625 0.015626 0.035157 0.050782 0.050781 0.070313 0 0 0.015626 0.015625 0.015626 0.035156 0.015624 0.035157 0.035156 0.050781 0.050781 0.085938 0 0 0 0.015625 0.015625 0.015625 0.015625 0.035156 0.035156 0.050781 0.050781 0.085937l0.015625 0.015625c0.035156 0.070313 0.085938 0.14062 0.12109 0.19141 0 0 0.015625 0.015626 0.015625 0.035157 0.015625 0.015625 0.035156 0.050781 0.035156 0.070312 0 0.015625 0.015625 0.035157 0.015625 0.035157 0.015625 0.015624 0.015625 0.035156 0.035156 0.050781 0.015625 0.015625 0.015625 0.035156 0.035156 0.050781 0.015626 0.015625 0.015626 0.035156 0.035157 0.050781l0.015625 0.035157c0.015625 0.015624 0.015625 0.035156 0.035156 0.050781 0.015625 0.015625 0.015625 0.015625 0.015625 0.035156 0.015625 0.015625 0.035156 0.050781 0.050781 0.070313 0.015625 0.015624 0.015625 0.035156 0.035156 0.050781 0.015626 0.015625 0.035157 0.050781 0.035157 0.070312 0.015625 0.015625 0.015625 0.015625 0.015625 0.035157 0.015625 0.015624 0.015625 0.035156 0.035156 0.050781 0.015625 0.015625 0.015625 0.035156 0.035156 0.035156 0.015625 0.015625 0.015625 0.035156 0.035156 0.050781 0.14844 0.11719 0.14844 0.13672 0.16406 0.15234s0.015625 0.035156 0.035156 0.050781c0.015625 0.015625 0.015625 0.035157 0.035157 0.050781 0.015624 0.015626 0.015624 0.035157 0.035156 0.050782 0.015625 0.015625 0.015625 0.035156 0.035156 0.050781 0 0.015625 0.015625 0.015625 0.015625 0.035156 0.015625 0.035157 0.050781 0.070313 0.070313 0.10547 0.015624 0.015625 0.015624 0.035156 0.035156 0.035156 0.015625 0.015625 0.015625 0.035156 0.035156 0.050782 0.015625 0.015624 0.015625 0.035156 0.035156 0.050781 0.015625 0.015625 0.015625 0.035156 0.035156 0.050781 0.015626 0.015625 0.015626 0.035156 0.035157 0.050781 0.015625 0.015625 0.015625 0.035157 0.035156 0.050781 0 0.015626 0.015625 0.015626 0.015625 0.035157 0.015625 0.015625 0.015625 0.035156 0.035156 0.050781 0 0.015625 0.015625 0.015625 0.015625 0.035156 0.015625 0.015625 0.015625 0.035156 0.035157 0.050782l0.015624 0.015624c0.070313 0.10547 0.14063 0.22656 0.21094 0.33203l0.015625 0.015625c0.015625 0.035156 0.035156 0.050781 0.050781 0.070312 0.015625 0.035157 0.035156 0.050781 0.050782 0.085938 0.10547 0.17578 0.22656 0.35156 0.33203 0.52344 0.15625 0.26172 0.33203 0.52344 0.48828 0.76953l7.3867-4.707c-5.4609-8.5586-10.465-17.5-14.91-26.602l-7.8594 3.8516c1.6758 3.5781 3.4805 7.043 5.3359 10.473z"/>
  <path d="m629.74 267.61v-0.085937-0.035157-0.085937-0.035156-0.070313-0.035156-0.085938-0.035156-0.085937-0.035157c0-0.12109-0.015625-0.26172-0.015625-0.38672v-0.035156-0.050781-0.050781-0.050782-0.050781-0.050781-0.070312-0.050782-0.070312-0.050782-0.070312-0.050781-0.070313-0.050781-0.085937-0.035157c0-0.085937 0-0.15625-0.015625-0.24609v0-0.10547-0.015625-0.10547-0.035156-0.085938-0.035156-0.085937-0.035157-0.070312-0.050781-0.070313-0.050781-0.085938-0.035156-0.085938-0.015624c0-0.085938 0-0.15625-0.015625-0.24609v-0.015625-0.10547-0.015625-0.085937-0.035157-0.085937-0.035156-0.085938-0.035156-0.085938-0.035156-0.085938-0.015624c-0.015625-0.24609-0.035156-0.47266-0.035156-0.71875v-0.035157-0.085937-0.015625-0.10547-0.015625-0.10547-0.015625-0.10547-0.015624c-0.015625-0.15625-0.015625-0.33203-0.035156-0.48828v-0.12109-0.015624-0.10547-0.015625-0.10547-0.015625-0.085938-0.035156-0.085937-0.015625-0.10547-0.015625-0.10547-0.015625c0-0.12109-0.015625-0.24609-0.015625-0.36719v-0.015625-0.10547-0.015625-0.10547-0.015625-0.10547-0.015626-0.10547-0.015625-0.10547-0.015625-0.10547c-0.015625-0.15625-0.015625-0.31641-0.035157-0.48828v-0.015625-0.10547-0.015625-0.10547-0.015626-0.085937-0.035156-0.085938-0.035156-0.085937-0.015626-0.10547c-0.015624-0.15625-0.015624-0.33203-0.035156-0.48828v-0.10547-0.015625-0.085938-0.035156-0.085937-0.035157-0.085937-0.015625-0.10547-0.015625-0.10547-0.015625c-0.015625-0.12109-0.015625-0.24609-0.035156-0.36719v-0.015625-0.10547-0.035156-0.085938-0.035156-0.085938-0.035156-0.085937-0.035157-0.085937-0.035156-0.085938-0.015625c0-0.035156 0-0.070312-0.015625-0.10547 0-0.085938-0.015625-0.15625-0.015625-0.24609 0-0.035156 0-0.085938-0.015625-0.12109 0-0.035156 0-0.070312-0.015625-0.10547v-0.015625-0.10547-0.015626-0.085937-0.035156-0.085938-0.035156-0.085937-0.035157-0.085937-0.035156-0.10547-0.015625c0-0.085938-0.015625-0.15625-0.015625-0.24609v-0.015625c0-0.035156 0-0.070313-0.015625-0.10547v-0.015625-0.085937-0.035156-0.085938-0.035156-0.085938-0.035156-0.070312-0.035157-0.070312-0.050781-0.070313-0.035156-0.085938-0.015625c0-0.085937-0.015625-0.15625-0.015625-0.24609v-0.015624c0-0.035157 0-0.070313-0.015625-0.10547v-0.015625-0.085938-0.035156-0.085938-0.035156-0.070312-0.050782-0.070312-0.050781-0.070313-0.035156c0-0.035156 0-0.070312-0.015625-0.085938v-0.015624c0-0.035157 0-0.070313-0.015625-0.10547 0-0.085938-0.015625-0.15625-0.015625-0.24609v0c0-0.035156 0-0.070313-0.015625-0.10547v-0.015625-0.085937-0.035156-0.085938-0.035156c0-0.035156 0-0.050782-0.015625-0.085938v-0.035156c0-0.035156 0-0.050781-0.015625-0.085938v-0.015624-0.085938-0.035156c-0.015625-0.15625-0.035156-0.31641-0.050781-0.47266v-0.015626c0-0.035156 0-0.070312-0.015625-0.085937v-0.035156c0-0.035157 0-0.050781-0.015625-0.085938v-0.035156-0.085937-0.035157-0.085937-0.035156c0-0.035157 0-0.050782-0.015625-0.085938v-0.035156c0-0.035156 0-0.050782-0.015625-0.085938v-0.035156c0-0.035156 0-0.070312-0.015625-0.10547v-0.015625c-0.015625-0.12109-0.015625-0.24609-0.035156-0.36719v-0.015625c0-0.035156 0-0.070313-0.015626-0.10547v-0.015625c0-0.035156 0-0.070312-0.015624-0.10547v-0.015625c0-0.035156 0-0.070312-0.015626-0.085937v-0.015625c0-0.035156 0-0.070313-0.015624-0.085938v-0.035156c0-0.035156 0-0.070312-0.015626-0.085938v-0.015624c0-0.035157 0-0.070313-0.015624-0.085938v-0.035156c-0.015626-0.15625-0.035157-0.31641-0.050782-0.47266 0-0.035157 0-0.070313-0.015625-0.12109 0-0.035156 0-0.070313-0.015625-0.12109 0-0.035156 0-0.070312-0.015625-0.10547 0-0.035156 0-0.070312-0.015625-0.10547v-0.015624c-0.035156-0.31641-0.070312-0.64844-0.10547-0.96094-0.070313-0.64844-0.15625-1.2969-0.22656-1.9258l-8.6797 1.0664c1.2422 10.027 1.9258 20.266 2.0469 30.434l8.75-0.10547c-0.74609-3.3242-0.83594-6.3359-0.95703-9.3281z"/>
  <path d="m467.74 25.883c-9.4844-4.3906-19.25-8.2773-29.262-11.621l-2.7656 8.2969c9.6094 3.2031 19.145 6.9844 28.352 11.254z"/>
  <path d="m408.08 6.0391c-3.6406-0.76953-7.3164-1.4688-10.988-2.082-0.035156 0-0.070312-0.015625-0.10547-0.015625h-0.015625c-0.035156 0-0.050781-0.015625-0.085937-0.015625h-0.015625c-0.035156 0-0.050782-0.015625-0.085938-0.015625h-0.015625c-0.10547-0.015625-0.19141-0.035156-0.29688-0.050781h-0.015625c-0.015625 0-0.035156 0-0.050781-0.015625-0.015625 0-0.035156 0-0.070312-0.015625h-0.050782c-0.015625 0-0.050781 0-0.070312-0.015625h-0.035156c-0.035157 0-0.050782-0.015625-0.085938-0.015625h-0.035156c-0.035156 0-0.050782-0.015625-0.085938-0.015625h-0.015625c-0.035156 0-0.070312-0.015625-0.10547-0.015625h-0.015624c-6.2109-1.0156-12.512-1.8359-18.848-2.4492l-0.83984 8.7148c10.113 0.96094 20.246 2.5195 30.152 4.6016z"/>
  <path d="m289.47 15.523-1.9453-8.5234c-0.45313 0.10547-0.92578 0.21094-1.3828 0.31641-0.035156 0-0.070313 0.015625-0.10547 0.015625s-0.070312 0.015625-0.10547 0.015625c-0.14063 0.035156-0.26172 0.070313-0.40234 0.085938h-0.035156c-0.015626 0-0.035157 0.015625-0.070313 0.015625-0.015625 0-0.035156 0-0.050781 0.015625-0.015625 0-0.050782 0.015625-0.050782 0.015625-0.015624 0-0.035156 0.015625-0.050781 0.015625s-0.035156 0-0.050781 0.015625c-0.015625 0-0.050781 0.015625-0.070312 0.015625 0 0-0.035157 0-0.050782 0.015625-0.035156 0-0.050781 0.015625-0.085937 0.015625h-0.035157c-0.035156 0.015625-0.070312 0.015625-0.10547 0.035156-0.035156 0-0.070313 0.015625-0.12109 0.035156h-0.015625c-0.035156 0-0.050781 0.015625-0.085937 0.015625h-0.035157c-0.035156 0-0.050781 0.015625-0.085937 0.015625h-0.035156c-0.035157 0-0.050782 0.015625-0.085938 0.015625h-0.035156c-0.035156 0-0.070313 0.015625-0.10547 0.015625h-0.015625c-0.035156 0.015625-0.070312 0.015625-0.10547 0.035156-0.15625 0.035157-0.31641 0.070313-0.47266 0.12109-3.6914 0.89062-7.332 1.8711-10.973 2.9062h-0.015625c-0.035156 0.015625-0.070313 0.015625-0.10547 0.035156-0.035156 0.015626-0.070313 0.015626-0.10547 0.035157h-0.015625c-0.035156 0-0.070312 0.015625-0.085937 0.035156h-0.015625c-0.035157 0.015625-0.070313 0.015625-0.085938 0.035156h-0.015625c-0.070312 0.015625-0.15625 0.050781-0.22656 0.070313h-0.035156c-0.035157 0-0.050782 0.015625-0.085938 0.015625 0 0-0.035156 0-0.035156 0.015625-0.015625 0-0.050782 0.015625-0.070313 0.015625-0.015625 0-0.035156 0-0.050781 0.015625-0.015625 0-0.050781 0.015625-0.070312 0.015625-0.015626 0-0.015626 0-0.035157 0.015625-0.015625 0-0.050781 0.015625-0.070312 0.015625 0 0-0.035157 0.015625-0.050781 0.015625-0.015626 0-0.050782 0.015625-0.070313 0.015625-0.015625 0-0.035156 0-0.050781 0.015625-0.015625 0-0.035156 0-0.050782 0.015625-0.070312 0.015625-0.15625 0.050781-0.24609 0.070312-0.015625 0-0.015625 0-0.035157 0.015625-0.015624 0-0.035156 0.015625-0.070312 0.015625-0.015625 0-0.035156 0-0.035156 0.015625-0.015625 0-0.050782 0.015625-0.070313 0.015625-0.015625 0-0.035156 0-0.050781 0.015625-0.015625 0-0.050781 0.015625-0.070312 0.015625-0.015626 0-0.015626 0-0.035157 0.015625-0.015625 0-0.050781 0.015625-0.070312 0.015625h-0.015625c-0.15625 0.050781-0.33203 0.10547-0.48828 0.14062-0.035156 0.015625-0.050781 0.015625-0.085937 0.035156h-0.015625c-0.035156 0.015626-0.050781 0.015626-0.085938 0.035157-4.2539 1.2773-8.4883 2.6406-12.652 4.0938l2.9062 8.2617c9.4961-3.2852 19.348-6.1172 29.238-8.375z"/>
  <path d="m350 8.75v-8.75h-0.12109-0.035156-0.085938-0.050781-0.070312-0.050781-0.070313-0.050781-0.070313-0.050781-0.070312-0.050782-0.070312-0.050782-0.070312-0.050781-0.070313-0.050781-0.24609-0.015625-0.085937-0.050781-0.070313-0.050781-0.070313-0.050781-0.070312-0.050782-0.070312-0.050782-0.070312-0.050781-0.070313-0.050781-0.085937-0.035157-0.10547-0.035156-0.10547-0.035157-0.085937-0.035156-0.070313-0.050781-0.070313-0.050781-0.070312-0.050782-0.070312-0.050782-0.070312-0.050781-0.070313-0.050781-0.10547-0.015625-0.12109-0.12109-0.035156-0.070313-0.050781-0.070313-0.050781-0.050781-0.070313-0.050781-0.070313-0.050781-0.070312-0.070313-0.050781-0.070313-0.050781-0.070312-0.050781-0.070313-0.12109-0.050781-0.050781-0.050781-0.050782-0.050781-0.050781-0.070313-0.050781-0.050781-0.050781-0.050782-0.070312-0.050782-0.070312-0.050781-0.070313-0.035156-0.085938-0.035156-0.15625-0.050781-0.070313-0.035156-0.070312-0.050782-0.050781-0.050781-0.050781-0.050781-0.050782-0.050781-0.070313-0.050781-0.050781-0.070312-0.050782-0.070312-0.050782-0.070312-0.10547-0.050781-0.050781-0.070313-0.070312-0.050782-0.070312-0.035156-0.085938-0.035156-0.070312-0.050782-0.070312-0.035156-0.085938-0.035156-0.085938-0.015625-0.085937-0.035156-0.28125-0.015626-0.070312-0.050781-0.070313-0.050781-0.070313-0.050781-0.070312-0.050781-0.070313-0.050781-0.070313-0.035156-0.085937-0.035157-0.085937-0.015625c-0.10547 0-0.19141 0-0.29688 0.015625h-0.015625-0.085938-0.035156-0.070313-0.050781-0.070312-0.035157-0.070312-0.035156-0.070313-0.050781-0.070312-0.050782-0.070312-0.035156-0.085938-0.015625c-0.10547 0-0.21094 0-0.29688 0.015625h-0.015625-0.085937-0.035157-0.085937-0.035156-0.085938-0.035156-0.085938-0.015625-0.085937-0.015625-0.10547-0.10547c-0.14062 0-0.28125 0.015625-0.42188 0.015625h-0.035156-0.085938-0.015624-0.085938-0.035156-0.085938-0.035156-0.085938-0.035156-0.085937-0.035157-0.085937-0.035156-0.085938-0.035156-0.085937-0.035157c-0.14062 0-0.26172 0.015625-0.40234 0.015625h-0.015626-0.085937-0.015625-0.085938-0.035156-0.085937-0.035157-0.085937-0.035156-0.085938-0.035156-0.085937-0.015626c-0.17578 0.015625-0.35156 0.015625-0.54297 0.035156h-0.10547-0.015625-0.10547-0.015625-0.10547-0.015626-0.10547-0.015625-0.10547c-0.29688 0.015625-0.59375 0.035156-0.875 0.050782h-0.015625-0.10547-0.015625-0.10547-0.10547-0.10547c-0.26172 0.015624-0.50781 0.035156-0.76953 0.050781h-0.10547-0.015625-0.085938-0.015624-0.10547c-0.29688 0.015625-0.59375 0.035156-0.89062 0.050781-0.070313 0-0.14062 0.015625-0.22656 0.015625-0.33203 0.015625-0.66406 0.050781-0.99609 0.070313h-0.10547-0.015625-0.10547c-0.33203 0.015624-0.64844 0.050781-0.99609 0.070312h-0.015625c-0.4375 0.035156-0.875 0.070312-1.3281 0.10547-0.36719 0.035156-0.73438 0.050781-1.1016 0.085937-0.035157 0-0.070313 0-0.10547 0.015625h-0.10547-0.015625-0.10547c-0.24609 0.015625-0.50781 0.050781-0.75391 0.070313h-0.015625-0.085937-0.015625-0.085938-0.015625-0.085937-0.015625-0.085938-0.015625c-0.21094 0.015625-0.42188 0.035156-0.64844 0.050781h-0.015625-0.085938-0.015625-0.085937-0.035156-0.070313-0.035156-0.070313-0.035156-0.070312-0.035157-0.070312-0.050781-0.070313-0.015625c-0.085938 0.015625-0.19141 0.015625-0.28125 0.035156h-0.015625-0.085937-0.035157-0.070312-0.035157-0.070312-0.035156-0.070313-0.050781-0.070312-0.050782-0.070312-0.050782-0.050781-0.050781-0.050781-0.085938-0.035156c-0.035156 0-0.070313 0-0.12109 0.015625h-0.015625c-0.035156 0-0.070312 0-0.085937 0.015625h-0.035157-0.085937-0.035156-0.085938-0.035156-0.085937-0.035157-0.070312-0.035157-0.070312-0.035156-0.070313-0.050781-0.070312-0.035157c-0.035156 0-0.070312 0-0.085937 0.015625h-0.015625c-0.035157 0-0.085938 0-0.12109 0.015625h-0.015625c-0.035156 0-0.070312 0-0.10547 0.015625h-0.015625c-0.035156 0-0.050781 0-0.085937 0.015625h-0.035157-0.085937-0.035156-0.070313-0.035156c-0.035156 0-0.050781 0-0.085938 0.015625h-0.035156c-0.035156 0-0.070312 0-0.085937 0.015625h-0.015625c-0.035156 0-0.070313 0-0.10547 0.015625h-0.015625c-0.58203 0.76953-0.89453 0.80469-1.2109 0.83984l0.98047 8.6992c10.027-1.1406 20.281-1.6992 30.449-1.6992z"/>
  <path d="m412.67 543.97 2.0117 8.5234c4.7773-1.1211 9.4844-2.3789 14.156-3.7461 0.035156-0.015625 0.070312-0.015625 0.10547-0.035156h0.015625c0.035157-0.015626 0.050781-0.015626 0.085938-0.035157 0.035156-0.015625 0.050781-0.015625 0.085937-0.035156h0.015625c0.085938-0.035156 0.19141-0.050781 0.28125-0.085937 0.015625 0 0.050781-0.015626 0.070313-0.015626 0.015625 0 0.035156-0.015624 0.050781-0.015624s0.035156-0.015626 0.050781-0.015626 0.035156-0.015624 0.050782-0.015624c0.015624 0 0.035156-0.015626 0.050781-0.015626s0.050781-0.015624 0.070312-0.015624c0.015625 0 0.035157 0 0.050781-0.015626 0.015626 0 0.050782-0.015624 0.070313-0.015624 0 0 0.035156 0 0.035156-0.015626 0.035157-0.015624 0.070313-0.015624 0.10547-0.035156h0.015625c0.070313-0.015625 0.15625-0.050781 0.22656-0.070312 0.035156-0.015625 0.070312-0.015625 0.10547-0.035156h0.015625c0.035157-0.015626 0.070313-0.015626 0.10547-0.035157 4.8281-1.4531 9.6094-3.0273 14.316-4.7266l-2.957-8.2266c-9.5039 3.4336-19.34 6.3555-29.191 8.6836z"/>
 </g>
</svg>
