<?xml version="1.0" encoding="utf-8"?>
<!-- Generator: Adobe Illustrator 26.0.3, SVG Export Plug-In . SVG Version: 6.00 Build 0)  -->
<svg version="1.1" id="Layer_1" xmlns="http://www.w3.org/2000/svg" xmlns:xlink="http://www.w3.org/1999/xlink" x="0px" y="0px"
	 viewBox="0 0 700 700" style="enable-background:new 0 0 700 700;" xml:space="preserve">
<style type="text/css">
	.st0{fill:#43D9BD;}
</style>
<g>
	<path class="st0" d="M350,58.3c-58,0-105,47-105,105v140c0,58,47,105,105,105s105-47,105-105v-140C455,105.3,408,58.3,350,58.3z
		 M350,23.3c77.3,0,140,62.7,140,140v140c0,77.3-62.7,140-140,140s-140-62.7-140-140v-140C210,86,272.7,23.3,350,23.3z"/>
	<path class="st0" d="M332.5,128.3c0-9.7,7.8-17.5,17.5-17.5s17.5,7.8,17.5,17.5v93.3c0,9.7-7.8,17.5-17.5,17.5s-17.5-7.8-17.5-17.5
		V128.3z"/>
	<path class="st0" d="M358.7,540.2c-8.4,4.8-19.1,1.9-23.9-6.5s-1.9-19.1,6.5-23.9l81.7-46.7c8.4-4.8,19.1-1.9,23.9,6.5
		s1.9,19.1-6.5,23.9L358.7,540.2z"/>
	<path class="st0" d="M358.7,509.8c8.4,4.8,11.3,15.5,6.5,23.9s-15.5,11.3-23.9,6.5l-81.7-46.7c-8.4-4.8-11.3-15.5-6.5-23.9
		c4.8-8.4,15.5-11.3,23.9-6.5L358.7,509.8z"/>
</g>
</svg>
