<?xml version="1.0" encoding="UTF-8"?>
<svg width="700pt" height="700pt" version="1.1" viewBox="0 0 700 700" xmlns="http://www.w3.org/2000/svg" xmlns:xlink="http://www.w3.org/1999/xlink">
 <defs>
  <symbol id="v" overflow="visible">
   <path d="m13.406-0.79688c-0.69922 0.35547-1.4219 0.62109-2.1719 0.79688-0.74219 0.1875-1.5234 0.28125-2.3438 0.28125-2.4297 0-4.3516-0.67578-5.7656-2.0312-1.418-1.3633-2.125-3.207-2.125-5.5312 0-2.3203 0.70703-4.1602 2.125-5.5156 1.4141-1.3633 3.3359-2.0469 5.7656-2.0469 0.82031 0 1.6016 0.09375 2.3438 0.28125 0.75 0.17969 1.4727 0.44531 2.1719 0.79688v3.0156c-0.69922-0.46875-1.3867-0.8125-2.0625-1.0312-0.67969-0.22656-1.3906-0.34375-2.1406-0.34375-1.3438 0-2.4023 0.43359-3.1719 1.2969-0.76172 0.85547-1.1406 2.0391-1.1406 3.5469 0 1.5117 0.37891 2.6992 1.1406 3.5625 0.76953 0.85547 1.8281 1.2812 3.1719 1.2812 0.75 0 1.4609-0.10938 2.1406-0.32812 0.67578-0.22656 1.3633-0.57812 2.0625-1.0469z"/>
  </symbol>
  <symbol id="d" overflow="visible">
   <path d="m9.8125-7.9531c-0.3125-0.14453-0.62109-0.25-0.92188-0.3125-0.30469-0.070313-0.60547-0.10938-0.90625-0.10938-0.90625 0-1.6055 0.28906-2.0938 0.85938-0.48047 0.57422-0.71875 1.3984-0.71875 2.4688v5.0469h-3.4844v-10.938h3.4844v1.7969c0.44531-0.71875 0.96094-1.2383 1.5469-1.5625 0.58203-0.33203 1.2812-0.5 2.0938-0.5 0.125 0 0.25391 0.007813 0.39062 0.015625 0.13281 0.011719 0.33203 0.03125 0.59375 0.0625z"/>
  </symbol>
  <symbol id="c" overflow="visible">
   <path d="m12.594-5.5v1h-8.1719c0.082031 0.82422 0.37891 1.4375 0.89062 1.8438 0.50781 0.40625 1.2188 0.60938 2.125 0.60938 0.73828 0 1.4922-0.10938 2.2656-0.32812 0.76953-0.21875 1.5625-0.54688 2.375-0.98438v2.6875c-0.82422 0.3125-1.6523 0.54688-2.4844 0.70312-0.82422 0.16406-1.6484 0.25-2.4688 0.25-1.9805 0-3.5234-0.5-4.625-1.5-1.0938-1.0078-1.6406-2.4219-1.6406-4.2344 0-1.7891 0.53516-3.1953 1.6094-4.2188 1.082-1.0195 2.5664-1.5312 4.4531-1.5312 1.7188 0 3.0938 0.52344 4.125 1.5625 1.0312 1.0312 1.5469 2.4141 1.5469 4.1406zm-3.5938-1.1562c0-0.66406-0.19531-1.2031-0.57812-1.6094-0.38672-0.40625-0.89062-0.60938-1.5156-0.60938-0.67969 0-1.2305 0.19531-1.6562 0.57812-0.41797 0.375-0.67969 0.92188-0.78125 1.6406z"/>
  </symbol>
  <symbol id="f" overflow="visible">
   <path d="m6.5781-4.9219c-0.73047 0-1.2773 0.125-1.6406 0.375-0.36719 0.24219-0.54688 0.60547-0.54688 1.0938 0 0.4375 0.14453 0.78125 0.4375 1.0312 0.30078 0.25 0.71094 0.375 1.2344 0.375 0.65625 0 1.207-0.23438 1.6562-0.70312 0.45703-0.46875 0.6875-1.0547 0.6875-1.7656v-0.40625zm5.3438-1.3125v6.2344h-3.5156v-1.625c-0.46875 0.66797-1 1.1523-1.5938 1.4531-0.58594 0.30078-1.2969 0.45312-2.1406 0.45312-1.125 0-2.043-0.32812-2.75-0.98438-0.71094-0.66406-1.0625-1.5234-1.0625-2.5781 0-1.2812 0.4375-2.2188 1.3125-2.8125 0.88281-0.60156 2.2734-0.90625 4.1719-0.90625h2.0625v-0.28125c0-0.55078-0.21875-0.95312-0.65625-1.2031-0.4375-0.25781-1.1211-0.39062-2.0469-0.39062-0.75 0-1.4492 0.078125-2.0938 0.23438-0.64844 0.14844-1.2461 0.36719-1.7969 0.65625v-2.6562c0.75-0.1875 1.5-0.32812 2.25-0.42188 0.75781-0.09375 1.5195-0.14062 2.2812-0.14062 1.9688 0 3.3906 0.39062 4.2656 1.1719 0.875 0.77344 1.3125 2.0391 1.3125 3.7969z"/>
  </symbol>
  <symbol id="b" overflow="visible">
   <path d="m5.5-14.047v3.1094h3.6094v2.5h-3.6094v4.6406c0 0.51172 0.097656 0.85547 0.29688 1.0312 0.20703 0.17969 0.60938 0.26562 1.2031 0.26562h1.7969v2.5h-3c-1.375 0-2.3555-0.28516-2.9375-0.85938-0.57422-0.58203-0.85938-1.5625-0.85938-2.9375v-4.6406h-1.7344v-2.5h1.7344v-3.1094z"/>
  </symbol>
  <symbol id="k" overflow="visible">
   <path d="m9.125-9.3438v-5.8594h3.5156v15.203h-3.5156v-1.5781c-0.48047 0.64844-1.0117 1.1211-1.5938 1.4219-0.58594 0.28906-1.2578 0.4375-2.0156 0.4375-1.3438 0-2.4492-0.53516-3.3125-1.6094-0.86719-1.0703-1.2969-2.4453-1.2969-4.125 0-1.6875 0.42969-3.0664 1.2969-4.1406 0.86328-1.0703 1.9688-1.6094 3.3125-1.6094 0.75781 0 1.4297 0.15234 2.0156 0.45312 0.58203 0.30469 1.1133 0.77344 1.5938 1.4062zm-2.3125 7.0938c0.75 0 1.3203-0.26953 1.7188-0.8125 0.39453-0.55078 0.59375-1.3477 0.59375-2.3906 0-1.0391-0.19922-1.832-0.59375-2.375-0.39844-0.55078-0.96875-0.82812-1.7188-0.82812-0.74219 0-1.3086 0.27734-1.7031 0.82812-0.39844 0.54297-0.59375 1.3359-0.59375 2.375 0 1.043 0.19531 1.8398 0.59375 2.3906 0.39453 0.54297 0.96094 0.8125 1.7031 0.8125z"/>
  </symbol>
  <symbol id="e" overflow="visible">
   <path d="m7.5-2.25c0.75 0 1.3203-0.26953 1.7188-0.8125 0.39453-0.55078 0.59375-1.3477 0.59375-2.3906 0-1.0391-0.19922-1.832-0.59375-2.375-0.39844-0.55078-0.96875-0.82812-1.7188-0.82812s-1.3281 0.27734-1.7344 0.82812c-0.39844 0.54297-0.59375 1.3359-0.59375 2.375 0 1.0312 0.19531 1.8242 0.59375 2.375 0.40625 0.55469 0.98438 0.82812 1.7344 0.82812zm-2.3281-7.0938c0.48828-0.63281 1.0234-1.1016 1.6094-1.4062 0.58203-0.30078 1.2539-0.45312 2.0156-0.45312 1.3516 0 2.4609 0.53906 3.3281 1.6094 0.86328 1.0742 1.2969 2.4531 1.2969 4.1406 0 1.6797-0.43359 3.0547-1.2969 4.125-0.86719 1.0742-1.9766 1.6094-3.3281 1.6094-0.76172 0-1.4336-0.15234-2.0156-0.45312-0.58594-0.30078-1.1211-0.76953-1.6094-1.4062v1.5781h-3.4844v-15.203h3.4844z"/>
  </symbol>
  <symbol id="j" overflow="visible">
   <path d="m0.25-10.938h3.4844l2.9531 7.4219 2.5-7.4219h3.4844l-4.5938 11.969c-0.46094 1.2188-1 2.0664-1.625 2.5469-0.61719 0.48828-1.4219 0.73438-2.4219 0.73438h-2.0312v-2.2969h1.0938c0.59375 0 1.0234-0.09375 1.2969-0.28125 0.26953-0.1875 0.47656-0.52734 0.625-1.0156l0.10938-0.29688z"/>
  </symbol>
  <symbol id="i" overflow="visible">
   <path d="m5.5938-11.734v8.8906h1.3438c1.5391 0 2.7188-0.37891 3.5312-1.1406 0.8125-0.75781 1.2188-1.8672 1.2188-3.3281 0-1.4375-0.40625-2.5312-1.2188-3.2812-0.80469-0.75781-1.9805-1.1406-3.5312-1.1406zm-3.75-2.8438h3.9531c2.2188 0 3.8672 0.15625 4.9531 0.46875 1.082 0.3125 2.0078 0.85156 2.7812 1.6094 0.6875 0.65625 1.1953 1.418 1.5312 2.2812 0.33203 0.85547 0.5 1.8242 0.5 2.9062 0 1.1055-0.16797 2.0898-0.5 2.9531-0.33594 0.86719-0.84375 1.625-1.5312 2.2812-0.78125 0.75-1.7188 1.2891-2.8125 1.6094-1.0938 0.3125-2.7344 0.46875-4.9219 0.46875h-3.9531z"/>
  </symbol>
  <symbol id="u" overflow="visible">
   <path d="m1.6875-10.938h3.4844v10.938h-3.4844zm0-4.2656h3.4844v2.8594h-3.4844z"/>
  </symbol>
  <symbol id="h" overflow="visible">
   <path d="m12.672-6.6562v6.6562h-3.5156v-5.0938c0-0.94531-0.023438-1.5977-0.0625-1.9531-0.042969-0.36328-0.11719-0.62891-0.21875-0.79688-0.13672-0.22656-0.32422-0.40625-0.5625-0.53125-0.23047-0.125-0.49609-0.1875-0.79688-0.1875-0.73047 0-1.3047 0.28125-1.7188 0.84375-0.41797 0.5625-0.625 1.3438-0.625 2.3438v5.375h-3.4844v-10.938h3.4844v1.5938c0.53125-0.63281 1.0938-1.1016 1.6875-1.4062 0.59375-0.30078 1.2422-0.45312 1.9531-0.45312 1.2695 0 2.2266 0.39062 2.875 1.1719 0.65625 0.77344 0.98438 1.8984 0.98438 3.375z"/>
  </symbol>
  <symbol id="a" overflow="visible">
   <path d="m6.8906-8.7031c-0.78125 0-1.375 0.28125-1.7812 0.84375-0.40625 0.55469-0.60938 1.3555-0.60938 2.4062 0 1.043 0.20312 1.8438 0.60938 2.4062 0.40625 0.55469 1 0.82812 1.7812 0.82812 0.75781 0 1.3359-0.27344 1.7344-0.82812 0.40625-0.5625 0.60938-1.3633 0.60938-2.4062 0-1.0508-0.20312-1.8516-0.60938-2.4062-0.39844-0.5625-0.97656-0.84375-1.7344-0.84375zm0-2.5c1.875 0 3.3359 0.51172 4.3906 1.5312 1.0625 1.0117 1.5938 2.418 1.5938 4.2188 0 1.793-0.53125 3.1992-1.5938 4.2188-1.0547 1.0117-2.5156 1.5156-4.3906 1.5156-1.8984 0-3.375-0.50391-4.4375-1.5156-1.0625-1.0195-1.5938-2.4258-1.5938-4.2188 0-1.8008 0.53125-3.207 1.5938-4.2188 1.0625-1.0195 2.5391-1.5312 4.4375-1.5312z"/>
  </symbol>
  <symbol id="t" overflow="visible">
   <path d="m10.219-10.594v2.6562c-0.74219-0.3125-1.4609-0.54688-2.1562-0.70312-0.69922-0.15625-1.3594-0.23438-1.9844-0.23438-0.65625 0-1.1484 0.085938-1.4688 0.25-0.32422 0.16797-0.48438 0.42188-0.48438 0.76562 0 0.28125 0.11719 0.49609 0.35938 0.64062 0.25 0.14844 0.6875 0.25781 1.3125 0.32812l0.625 0.09375c1.7891 0.23047 2.9922 0.60547 3.6094 1.125 0.61328 0.52344 0.92188 1.3398 0.92188 2.4531 0 1.168-0.43359 2.043-1.2969 2.625-0.85547 0.58594-2.1328 0.875-3.8281 0.875-0.73047 0-1.4805-0.058594-2.25-0.17188-0.77344-0.11328-1.5625-0.28516-2.375-0.51562v-2.6562c0.69531 0.34375 1.4102 0.60156 2.1406 0.76562 0.72656 0.16797 1.4727 0.25 2.2344 0.25 0.6875 0 1.2031-0.09375 1.5469-0.28125s0.51562-0.46875 0.51562-0.84375c0-0.3125-0.12109-0.53906-0.35938-0.6875-0.24219-0.15625-0.71484-0.27344-1.4219-0.35938l-0.60938-0.078125c-1.5625-0.19531-2.6562-0.55469-3.2812-1.0781-0.625-0.53125-0.9375-1.332-0.9375-2.4062 0-1.1562 0.39453-2.0156 1.1875-2.5781 0.80078-0.5625 2.0195-0.84375 3.6562-0.84375 0.64453 0 1.3203 0.054687 2.0312 0.15625 0.70703 0.09375 1.4766 0.24609 2.3125 0.45312z"/>
  </symbol>
  <symbol id="g" overflow="visible">
   <path d="m8.875-15.203v2.2969h-1.9375c-0.49219 0-0.83594 0.09375-1.0312 0.28125-0.19922 0.17969-0.29688 0.48438-0.29688 0.92188v0.76562h3v2.5h-3v8.4375h-3.4844v-8.4375h-1.75v-2.5h1.75v-0.76562c0-1.1875 0.32812-2.0664 0.98438-2.6406 0.66406-0.57031 1.6953-0.85938 3.0938-0.85938z"/>
  </symbol>
  <symbol id="s" overflow="visible">
   <path d="m1.8438-14.578h3.75v11.734h6.6094v2.8438h-10.359z"/>
  </symbol>
  <symbol id="r" overflow="visible">
   <path d="m11.812-9.125c0.44531-0.67578 0.97266-1.1914 1.5781-1.5469 0.61328-0.35156 1.2852-0.53125 2.0156-0.53125 1.25 0 2.2031 0.39062 2.8594 1.1719 0.66406 0.77344 1 1.8984 1 3.375v6.6562h-3.5156v-5.7031-0.26562c0.007812-0.09375 0.015625-0.22266 0.015625-0.39062 0-0.76953-0.11719-1.3281-0.34375-1.6719-0.23047-0.35156-0.60156-0.53125-1.1094-0.53125-0.65625 0-1.168 0.27734-1.5312 0.82812-0.36719 0.54297-0.55469 1.3281-0.5625 2.3594v5.375h-3.5156v-5.7031c0-1.207-0.10547-1.9844-0.3125-2.3281-0.21094-0.35156-0.57812-0.53125-1.1094-0.53125-0.67969 0-1.1992 0.27734-1.5625 0.82812-0.36719 0.54297-0.54688 1.3281-0.54688 2.3594v5.375h-3.5156v-10.938h3.5156v1.5938c0.4375-0.61328 0.92969-1.0781 1.4844-1.3906 0.55078-0.3125 1.1641-0.46875 1.8438-0.46875 0.75 0 1.4141 0.18359 2 0.54688 0.58203 0.36719 1.0195 0.875 1.3125 1.5312z"/>
  </symbol>
  <symbol id="q" overflow="visible">
   <path d="m12.672-6.6562v6.6562h-3.5156v-5.0781c0-0.95703-0.023438-1.6133-0.0625-1.9688-0.042969-0.36328-0.11719-0.62891-0.21875-0.79688-0.13672-0.22656-0.32422-0.40625-0.5625-0.53125-0.23047-0.125-0.49609-0.1875-0.79688-0.1875-0.73047 0-1.3047 0.28125-1.7188 0.84375-0.41797 0.5625-0.625 1.3438-0.625 2.3438v5.375h-3.4844v-15.203h3.4844v5.8594c0.53125-0.63281 1.0938-1.1016 1.6875-1.4062 0.59375-0.30078 1.2422-0.45312 1.9531-0.45312 1.2695 0 2.2266 0.39062 2.875 1.1719 0.65625 0.77344 0.98438 1.8984 0.98438 3.375z"/>
  </symbol>
  <symbol id="p" overflow="visible">
   <path d="m1.8438-14.578h4.1875l5.3125 10v-10h3.5625v14.578h-4.2031l-5.2969-10v10h-3.5625z"/>
  </symbol>
  <symbol id="o" overflow="visible">
   <path d="m1.5625-4.2656v-6.6719h3.5156v1.0938c0 0.59375-0.007813 1.3398-0.015625 2.2344v1.7812c0 0.88672 0.019531 1.5234 0.0625 1.9062 0.050781 0.38672 0.12891 0.66797 0.23438 0.84375 0.14453 0.23047 0.33203 0.40625 0.5625 0.53125 0.22656 0.125 0.49219 0.1875 0.79688 0.1875 0.72656 0 1.3008-0.28125 1.7188-0.84375 0.41406-0.5625 0.625-1.3359 0.625-2.3281v-5.4062h3.5v10.938h-3.5v-1.5781c-0.53125 0.63672-1.0938 1.1055-1.6875 1.4062-0.58594 0.30078-1.2305 0.45312-1.9375 0.45312-1.2617 0-2.2266-0.38281-2.8906-1.1562-0.65625-0.78125-0.98438-1.9102-0.98438-3.3906z"/>
  </symbol>
  <symbol id="n" overflow="visible">
   <path d="m1.8438-14.578h6.2344c1.8516 0 3.2734 0.41406 4.2656 1.2344 1 0.82422 1.5 1.9961 1.5 3.5156 0 1.5312-0.5 2.7109-1.5 3.5312-0.99219 0.82422-2.4141 1.2344-4.2656 1.2344h-2.4844v5.0625h-3.75zm3.75 2.7188v4.0781h2.0781c0.72656 0 1.2891-0.17578 1.6875-0.53125 0.40625-0.35156 0.60938-0.85938 0.60938-1.5156 0-0.64453-0.20312-1.1445-0.60938-1.5-0.39844-0.35156-0.96094-0.53125-1.6875-0.53125z"/>
  </symbol>
  <symbol id="m" overflow="visible">
   <path d="m1.6875-10.938h3.4844v10.734c0 1.4688-0.35547 2.5859-1.0625 3.3594-0.69922 0.76953-1.7148 1.1562-3.0469 1.1562h-1.7344v-2.2969h0.60938c0.66406 0 1.125-0.15234 1.375-0.45312 0.25-0.29297 0.375-0.88281 0.375-1.7656zm0-4.2656h3.4844v2.8594h-3.4844z"/>
  </symbol>
  <symbol id="l" overflow="visible">
   <path d="m10.516-10.594v2.8438c-0.46875-0.32031-0.94531-0.5625-1.4219-0.71875-0.48047-0.15625-0.98047-0.23438-1.5-0.23438-0.96875 0-1.7305 0.28906-2.2812 0.85938-0.54297 0.5625-0.8125 1.3594-0.8125 2.3906 0 1.0234 0.26953 1.8203 0.8125 2.3906 0.55078 0.5625 1.3125 0.84375 2.2812 0.84375 0.55078 0 1.0703-0.078125 1.5625-0.23438 0.48828-0.16406 0.94141-0.41016 1.3594-0.73438v2.8594c-0.54297 0.21094-1.0938 0.35938-1.6562 0.45312-0.5625 0.10156-1.1328 0.15625-1.7031 0.15625-1.9688 0-3.5117-0.50391-4.625-1.5156-1.1172-1.0078-1.6719-2.4141-1.6719-4.2188 0-1.8125 0.55469-3.2227 1.6719-4.2344 1.1133-1.0078 2.6562-1.5156 4.625-1.5156 0.57031 0 1.1328 0.054687 1.6875 0.15625 0.5625 0.09375 1.1172 0.24609 1.6719 0.45312z"/>
  </symbol>
 </defs>
 <g>
  <path d="m606 202.34c-2.0898 0-3.8047-1.6016-3.9844-3.6445-1.6641-1.9414-12.742-5.3555-33.348-5.3555-20.609 0-31.684 3.4141-33.348 5.3555-0.17969 2.043-1.8945 3.6445-3.9844 3.6445-2.2109 0-4-1.7891-4-4 0-11.309 25.898-13 41.336-13 15.434 0 41.332 1.6914 41.332 13-0.003906 2.207-1.793 4-4.0039 4z"/>
  <path d="m606 462.2h-74.664c-2.2109 0-4-1.7891-4-4v-291.77c0-22.789 18.539-41.336 41.332-41.336 22.789 0 41.332 18.543 41.332 41.336v291.77c0 2.207-1.7891 4-4 4zm-70.664-8h66.664v-287.77c0-18.379-14.953-33.336-33.336-33.336-18.379 0-33.332 14.953-33.332 33.336z"/>
  <path d="m568.66 540c-1.5391 0-2.9414-0.88281-3.6055-2.2695l-37.332-77.797c-0.59766-1.2422-0.51172-2.6953 0.22266-3.8594 0.73438-1.1641 2.0078-1.8711 3.3828-1.8711h74.668c1.375 0 2.6523 0.70312 3.3828 1.8711 0.73438 1.1641 0.81641 2.6211 0.22266 3.8594l-37.336 77.797c-0.66016 1.3867-2.0664 2.2695-3.6055 2.2695zm-30.973-77.797 30.977 64.555 30.977-64.555z"/>
  <path d="m360.91 318.58h-63.906c-2.2109 0-4-1.7891-4-4s1.7891-4 4-4h63.906c2.2109 0 4 1.7891 4 4s-1.7891 4-4 4z"/>
  <path d="m401.57 338.25h-40.668c-2.2109 0-4-1.7891-4-4v-40.664c0-2.2109 1.7891-4 4-4h40.668c2.2109 0 4 1.7891 4 4v40.664c0 2.2109-1.7891 4-4 4zm-36.668-8h32.668v-32.664h-32.668z"/>
  <path d="m401.57 461.92h-40.668c-2.2109 0-4-1.7891-4-4v-40.664c0-2.2109 1.7891-4 4-4h40.668c2.2109 0 4 1.7891 4 4v40.664c0 2.2109-1.7891 4-4 4zm-36.668-8h32.668v-32.664h-32.668z"/>
  <path d="m401.57 214.57h-40.668c-2.2109 0-4-1.7891-4-4v-40.664c0-2.2109 1.7891-4 4-4h40.668c2.2109 0 4 1.7891 4 4v40.664c0 2.2109-1.7891 4-4 4zm-36.668-8h32.668v-32.664h-32.668z"/>
  <path d="m360.91 442.92h-41c-2.2109 0-4-1.7891-4-4v-248.68c0-2.2109 1.7891-4 4-4h41c2.2109 0 4 1.7891 4 4 0 2.2109-1.7891 4-4 4h-37v240.68h37c2.2109 0 4 1.7891 4 4 0 2.207-1.7891 4-4 4z"/>
  <path d="m281 80.59c-10.203 0-18.5-8.2969-18.5-18.496 0-10.203 8.2969-18.5 18.5-18.5s18.5 8.2969 18.5 18.5c0 10.195-8.2969 18.496-18.5 18.496zm0-29c-5.7891 0-10.5 4.7109-10.5 10.5 0 5.7891 4.7109 10.496 10.5 10.496s10.5-4.7109 10.5-10.496-4.7109-10.5-10.5-10.5z"/>
  <path d="m393.48 144.24h-224.97c-1.2656 0-2.457-0.59766-3.2109-1.6172-0.75391-1.0156-0.98438-2.3281-0.62109-3.5391l20.82-69.055c0.50781-1.6914 2.0664-2.8477 3.8281-2.8477h49.473v-4.9922c0.003906-23.262 18.93-42.191 42.195-42.191s42.191 18.93 42.191 42.191v4.9922h49.473c1.7656 0 3.3203 1.1562 3.8281 2.8477l20.82 69.055c0.36719 1.2109 0.13281 2.5234-0.62109 3.5391-0.75 1.0156-1.9375 1.6172-3.207 1.6172zm-219.59-8h214.2l-18.41-61.055h-50.5c-2.2109 0-4-1.7891-4-4v-8.9922c0-18.855-15.34-34.195-34.191-34.195s-34.191 15.34-34.191 34.191v8.9922c0 2.2109-1.7891 4-4 4h-50.5z"/>
  <path d="m468 540h-374c-2.2109 0-4-1.7891-4-4v-442.84c0-2.2109 1.7891-4 4-4h88.723c2.2109 0 4 1.7891 4 4 0 2.2109-1.7891 4-4 4h-84.723v434.84h366v-434.84h-84.723c-2.2109 0-4-1.7891-4-4 0-2.2109 1.7891-4 4-4h88.723c2.2109 0 4 1.7891 4 4v442.84c0 2.2109-1.7891 4-4 4z"/>
  <path d="m444 516h-326c-2.2109 0-4-1.7891-4-4v-394.84c0-2.2109 1.7891-4 4-4h57.48c2.2109 0 4 1.7891 4 4 0 2.2109-1.7891 4-4 4h-53.48v386.84h318v-386.84h-53.48c-2.2109 0-4-1.7891-4-4 0-2.2109 1.7891-4 4-4h57.48c2.2109 0 4 1.7891 4 4v394.84c0 2.2109-1.7891 4-4 4z"/>
  <path d="m244.35 238.83h-66.25c-2.2109 0-4-1.7891-4-4v-49c0-2.2109 1.7891-4 4-4h66.25c2.2109 0 4 1.7891 4 4v49c0 2.2109-1.793 4-4 4zm-62.25-8h58.25v-41h-58.25z"/>
  <path d="m248.86 260h-75.273c-8.0391 0-14.582-6.5391-14.582-14.582 0-8.0391 6.5391-14.586 14.582-14.586h75.277c8.0391 0 14.586 6.543 14.586 14.586-0.003906 8.0391-6.5508 14.582-14.59 14.582zm-75.273-21.168c-3.6289 0-6.582 2.9531-6.582 6.5859 0 3.6289 2.9531 6.582 6.582 6.582h75.277c3.6289 0 6.5859-2.9531 6.5859-6.582 0-3.6289-2.9531-6.5859-6.5859-6.5859z"/>
  <path d="m253.45 397.26h-84.441c-6.6211 0-12.004-6.1914-12.004-13.797 0-7.6094 5.3867-13.797 12.004-13.797h84.441c6.6211 0 12.004 6.1914 12.004 13.797 0.003906 7.6094-5.3828 13.797-12.004 13.797zm-84.441-19.594c-2.1719 0-4.0039 2.6523-4.0039 5.7969 0 3.1445 1.8359 5.7969 4.0039 5.7969h84.441c2.1719 0 4.0039-2.6562 4.0039-5.7969 0-3.1406-1.8359-5.7969-4.0039-5.7969z"/>
  <path d="m275.45 447.33h-128.45c-2.2109 0-4-1.7891-4-4v-38.07c0-8.8203 7.1797-16 16-16h104.45c8.8203 0 16 7.1797 16 16v38.07c0 2.2109-1.793 4-4 4zm-124.45-8h120.45v-34.07c0-4.4102-3.5898-8-8-8h-104.45c-4.4102 0-8 3.5898-8 8z"/>
  <path d="m254.09 377.65c-0.76562 0-1.5352-0.21875-2.2188-0.67188-1.8359-1.2266-2.3281-3.7148-1.1016-5.5469 4.9609-7.418 7.6719-15.418 8.2969-24.453 0.44141-12.902-4.4922-28.766-14.664-47.016-7.7617-13.852-11.867-29.051-11.867-43.945 0-2.2109 1.7891-4 4-4 2.2109 0 4 1.7891 4 4 0 13.527 3.7539 27.379 10.852 40.047 10.895 19.547 16.164 36.816 15.668 51.332-0.73047 10.602-3.8789 19.879-9.6328 28.484-0.77344 1.1445-2.043 1.7695-3.332 1.7695z"/>
  <path d="m168.38 377.65c-1.2852 0-2.5469-0.62109-3.3203-1.7656-5.7539-8.5391-8.9023-17.816-9.6289-28.359-0.50781-14.652 4.7656-31.922 15.656-51.465 7.0742-12.695 10.816-26.547 10.816-40.055 0-2.2109 1.7891-4 4-4 2.2109 0 4 1.7891 4 4 0 14.867-4.0898 30.062-11.828 43.945-10.172 18.254-15.105 34.117-14.656 47.156 0.62109 8.9648 3.332 16.961 8.2773 24.305 1.2344 1.832 0.74609 4.3164-1.0859 5.5547-0.68359 0.46094-1.4648 0.68359-2.2305 0.68359z"/>
  <use x="70" y="620" xlink:href="#v"/>
  <use x="84.679688" y="620" xlink:href="#d"/>
  <use x="94.539062" y="620" xlink:href="#c"/>
  <use x="108.105469" y="620" xlink:href="#f"/>
  <use x="121.601562" y="620" xlink:href="#b"/>
  <use x="131.164062" y="620" xlink:href="#c"/>
  <use x="144.726562" y="620" xlink:href="#k"/>
  <use x="166.007812" y="620" xlink:href="#e"/>
  <use x="180.320312" y="620" xlink:href="#j"/>
  <use x="200.320312" y="620" xlink:href="#i"/>
  <use x="216.921875" y="620" xlink:href="#u"/>
  <use x="223.78125" y="620" xlink:href="#h"/>
  <use x="238.015625" y="620" xlink:href="#a"/>
  <use x="251.757812" y="620" xlink:href="#t"/>
  <use x="263.664062" y="620" xlink:href="#a"/>
  <use x="277.402344" y="620" xlink:href="#g"/>
  <use x="286.101562" y="620" xlink:href="#b"/>
  <use x="295.664062" y="620" xlink:href="#s"/>
  <use x="308.40625" y="620" xlink:href="#f"/>
  <use x="321.90625" y="620" xlink:href="#e"/>
  <use x="70" y="640" xlink:href="#g"/>
  <use x="78.703125" y="640" xlink:href="#d"/>
  <use x="88.5625" y="640" xlink:href="#a"/>
  <use x="102.304688" y="640" xlink:href="#r"/>
  <use x="130.109375" y="640" xlink:href="#b"/>
  <use x="139.667969" y="640" xlink:href="#q"/>
  <use x="153.90625" y="640" xlink:href="#c"/>
  <use x="174.433594" y="640" xlink:href="#p"/>
  <use x="191.171875" y="640" xlink:href="#a"/>
  <use x="204.914062" y="640" xlink:href="#o"/>
  <use x="219.148438" y="640" xlink:href="#h"/>
  <use x="240.351562" y="640" xlink:href="#n"/>
  <use x="255.007812" y="640" xlink:href="#d"/>
  <use x="264.875" y="640" xlink:href="#a"/>
  <use x="278.613281" y="640" xlink:href="#m"/>
  <use x="285.46875" y="640" xlink:href="#c"/>
  <use x="299.03125" y="640" xlink:href="#l"/>
  <use x="310.890625" y="640" xlink:href="#b"/>
 </g>
</svg>
